<svg id="Graphic_Elements" data-name="Graphic Elements" xmlns="http://www.w3.org/2000/svg" viewBox="0 0 1200 1200"><g id="layer1"><path id="path4182" d="M324.19,1149.89c-1.45-.09-6.51-1.05-11.26-2-5.38-1.14-9.89-1.58-12-1.23-3,.53-3.51.35-4.87-1.75-2.42-3.68-2.62-10.77-.45-15.5,1-2.27,2.54-4.29,3.38-4.64s4.05-3.59,7.11-7.44,6.06-7,6.66-7,2.67-1.14,4.63-2.54c6.61-4.82,12.84-7.79,17.45-8.23,5.81-.61,8.15-1.93,15.15-8.49,7.47-6.92,11.53-8.49,18-7.09,5.21,1.22,6.68,2.89,4.43,5.16-1.19,1.14-1.73,1.23-3.5.26a6.86,6.86,0,0,0-3.75-.78c-1.27.26-.89.7,1.64,1.84s3.28,1.92,3.28,3.67c0,1.49-.47,2.19-1.54,2.19a17,17,0,0,1-9.48-3.59c-1.8-1.66-2.16-1.75-3.84-.52s-1.73,1.31,3,4.46c4.9,3.24,5.69,4.64,3.84,6.48-.73.7-1.51.7-2.84,0-2.74-1.4-6.65-5.25-6.65-6.57,0-1.75-.73-1.4-5.12,2.45a32.11,32.11,0,0,1-6.77,4.82,12.72,12.72,0,0,0-3.83,2.45,4.14,4.14,0,0,1-2.88,1.4c-2.63,0-.61,2,4.87,4.82,7.62,4,15.93,11.64,14.32,13.3-.43.44-7-6-7.79-7.52a18.48,18.48,0,0,0-3.74-2.19c-1.93-.88-4.1-1.93-4.82-2.37-3.94-2.27-8.9-4.29-10.63-4.29-3.57,0-8.44,4.21-16.76,14.45a39.44,39.44,0,0,0-3.64,5.6c-1.42,2.72-1.71,2.89-4.94,2.36l-3.43-.52v3.5c0,3.94.12,4,3.54,2a5.52,5.52,0,0,1,5.48-.53c1.63.53,5.93.7,9.53.44,3.84-.18,7.29,0,8.31.52,2.61,1.4,15.42-.87,23.34-4.2,3.6-1.49,10.7-3.85,15.77-5.25,10.81-2.89,11.07-3,11.08-5.52a10.65,10.65,0,0,1,1.8-4.55,50.31,50.31,0,0,0,5.56-10.68c.51-1.58,0-2-3.83-3.33-5.12-1.66-5.75-3.06-1.34-2.89,3.91.18,4.45-.43,2.71-3a7.66,7.66,0,0,1-1.4-3.59c0-1.32.58-1.58,3.46-1.4a9.24,9.24,0,0,0,4-.27c.88-.87,3,.27,3,1.58,0,1.75,1.14,1.49,3.81-.79s2.93-3.24,1.23-3.24a11.34,11.34,0,0,1-3.7-1.4,7.86,7.86,0,0,0-4.42-.87c-1,.26-3.78-.18-6.16-1.05-3.93-1.4-4.35-1.84-4.62-4.56-.36-3.85-1.42-4.46-6.09-3.85a21.13,21.13,0,0,1-7.71-.52c-3.63-1-4.16-1-6.49.78-5.06,3.68-9.05,1.23-8.58-5.25.25-3.5.6-4,3.63-5.51,4.8-2.28,13.63-2.89,17.25-1,3.81,1.83,5,1.75,6.17-.53,1.23-2.45,7.74-11.29,9.16-12.52a7.56,7.56,0,0,0,1.65-2.89,12.13,12.13,0,0,1,2.61-3.94,22.22,22.22,0,0,0,3.58-6.3,17.6,17.6,0,0,1,3.65-6.13c1.73-1.49,2.33-3.5,3.82-13.13,1-6.22,2.33-14.36,3-18s1.68-10.85,2.22-16.19c3.48-34.41,7.92-61,12.43-74.41a110.44,110.44,0,0,1,4.23-11.38,48.51,48.51,0,0,0,2.52-7.88c1-3.85,2.38-8.86,3.08-11.12,1.25-4.08,1.25-4.13-1.41-7.44-7.54-9.39-9.16-14.46-7.24-22.59,1.63-6.88,1.64-17.33,0-20.47-1-1.84-1.06-3.31-.41-6.17,1.57-7,4.74-11.68,16.59-24.52a120.6,120.6,0,0,0,8.18-9.47,22.37,22.37,0,0,1,3.41-3.94c1.85-1.74,2.37-2.84,1.88-3.94a13.85,13.85,0,0,1-.51-4.77c.13-2.46-.26-3.47-1.61-4.19a3.5,3.5,0,0,1-1.76-2.73,9.19,9.19,0,0,0-1-3.58c-.71-1.31-.71-2,0-2.41s1.48-7.07,2.21-16.42c1.26-16.17,2-19.21,5.67-22.5a5.45,5.45,0,0,0,1.84-3.22c0-.86,1.28-2.46,2.85-3.57a28.75,28.75,0,0,0,4.33-3.78c1.55-1.84,1.71-2.73,3.29-18.06.95-9.19,2.26-13.9,8.15-29.23,1.66-4.33,4.68-12.41,6.7-17.95s4-11,4.48-12.05c.52-1.25.48-4.42-.1-8.57-.94-6.82-.71-8.26,2.69-17,.85-2.17,2.23-6.11,3.09-8.76a75.79,75.79,0,0,1,3.17-8.07A15.43,15.43,0,0,0,491,592.3a12,12,0,0,1,1.38-4.19,48.38,48.38,0,0,0,2.48-5.8c1.87-5.37,7.95-14.27,18.53-27.13,8.86-10.76,12-15.62,10.89-16.95-.73-.89-.43-1.58,1.26-2.91,1.22-1,2.22-2.19,2.22-2.72a6.85,6.85,0,0,1,.82-2.51,22,22,0,0,0,1.29-3.07,3.48,3.48,0,0,1,2-2,30.67,30.67,0,0,0,8.76-4.57,12.12,12.12,0,0,1,5.25-2.2c2.58-.13,3.81-1.2,6.06-5.34,1.39-2.55,1.37-2.62-1.61-5.26a28,28,0,0,1-4.52-5.07,4.36,4.36,0,0,0-3.61-2.4c-4.64,0-8.26-5.9-8.31-13.57,0-5.3,6.76-16.52,19.83-32.7,4.21-5.22,4.52-7,2.25-13.41-1.1-3.09-2.83-5.45-6.13-8.33-5.21-4.54-5.45-5.63-2.68-12.31l1.91-4.61-2-2.65c-4.75-6.43-6.1-13.69-3.64-19.67,2-4.91,2.8-12.06,1.75-15.82-.77-2.76-.8-4.52-.12-6.47s.63-3.6-.26-6.39c-.66-2.05-2.08-6.5-3.15-9.91l-2-6.2,1.81-7.81c2.73-11.76,3.71-18.69,3.71-26.08a60.23,60.23,0,0,1,2.27-15.2c2.69-10.16,2.55-9.86,9.39-18.78,3-3.88,6.2-8.13,7.16-9.43a40.41,40.41,0,0,1,3.21-3.82,9.9,9.9,0,0,0,1.75-2.18c.16-.4,3-2.55,6.23-4.78,6.22-4.23,12.7-7,18.58-8,7-1.19,13.09-7.45,10.15-10.4a4.47,4.47,0,0,1-1-2.79,10.94,10.94,0,0,0-2.19-4.81,11.37,11.37,0,0,1-2.19-5.36c0-4.11-1.47-6.63-4.47-7.67-4-1.4-5.91-3.37-6.55-6.78-.44-2.35,0-3.77,2.1-7.11,4.17-6.54,8.92-16.24,8.92-18.23,0-3.7-5-6.41-16.86-9.07a39.36,39.36,0,0,0-6.59-.93c-3.52,0-6.31-2.28-6.31-5.14s2.33-5.21,10.94-11.08c9.18-6.25,10.69-8,12.78-14.35a157,157,0,0,1,7.6-16.9c5.4-10.52,6-11.33,11-14.69,2.91-2,6.3-3.77,7.52-4s4.4-1,7-1.7a112.86,112.86,0,0,1,32.11-3.8c8.61.17,11.88-.07,12.94-1,1.77-1.47,6.86-.13,11.57,3.07a12.14,12.14,0,0,0,4.88,2.14,14.71,14.71,0,0,1,4.47,1.19c9.74,4.18,12.17,5.47,12.9,6.84a1.85,1.85,0,0,0,2.06,1.07c1.93-.74,11.37,8.27,14.37,13.71,1.47,2.68,4.07,8.13,5.78,12.11,2.82,6.6,3.15,8.23,3.6,18,.42,9,.27,11.26-.92,13.57s-1.26,3.33-.49,5.52c.84,2.43.64,3.21-1.83,7.14C718.79,204,716,212.63,716,225c0,9.1,0,9.11,2.92,12.31,13.22,14.5,12.81,14.22,29,19.28,5.55,1.72,9.14,3.34,9.81,4.4s2.54,1.93,4.7,2.3c4.56.77,9.63,3,19.47,8.52,8.52,4.79,9.13,5.63,12.85,17.72,1.85,6,3.74,10.29,12.32,28l4.23,8.76-.91,8.31c-.5,4.57-1,12.95-1.19,18.61-.21,8.39-.6,10.94-2.1,13.81-2.47,4.75-2.34,5.8,1.31,11.23,4.72,7,5.79,10.19,5.46,16.24l-.29,5.34,3.72.26c2.44.17,3.72-.09,3.72-.76a33,33,0,0,1,2.65-6.41,72,72,0,0,0,4.3-12.36c1.1-4.61,2.21-7.31,3.25-7.87a27.62,27.62,0,0,0,4.5-3.94c3.51-3.7,3.39-5.31-1.18-15.51C828,338.83,826.9,336,824.59,329c-1.09-3.37-3.31-9.48-4.93-13.57s-3.77-10-4.79-13.13a32.85,32.85,0,0,0-2.68-6.52,3.84,3.84,0,0,1-.81-2.29c0-.8-1.12-3.77-2.48-6.61s-3.11-6.93-3.86-9.09a212.14,212.14,0,0,0-9.86-24.08c-2.11-4.33-4.68-10.05-5.7-12.69s-3-7.18-4.34-10.07c-3.79-8-14-31.9-15.56-36.33-1.94-5.6-6.54-16.91-7.28-18a30.44,30.44,0,0,1-1.95-5.33c-.72-2.45-3.32-9-5.79-14.52a109.84,109.84,0,0,1-4.46-11c0-.84-1.85-5.45-4.88-12.2a15.25,15.25,0,0,1-1.25-3.56c0-.44-1.71-5.11-3.81-10.37s-4.29-11.15-4.86-13.08-1.8-5.28-2.7-7.44c-4.31-10.3-7.1-20.59-7.62-28-.39-5.65-.35-5.78,2.95-9.33a41.09,41.09,0,0,1,17.41-10.55c10-3,16.95-.47,22.34,8.22C769.26,62,773.28,72,774.35,76c.25,1,1.55,4.31,2.87,7.44s3.1,8,3.95,10.94,2.43,7.62,3.51,10.51A251.31,251.31,0,0,1,793,133.3c2.45,10.51,5.83,21.37,8,25.57a15.32,15.32,0,0,1,1.65,4.87,22.81,22.81,0,0,0,2.19,6.16,25.55,25.55,0,0,1,2.19,5.65c0,1.13,5.42,17.17,6.88,20.35a70.21,70.21,0,0,1,2.29,7.44c2.1,8.07,6.33,22.27,8.47,28.46,1.9,5.5,4.25,13.1,8.14,26.26,5.22,17.65,7.63,25.58,8.93,29.33.75,2.16,1.74,5.51,2.2,7.44a41.08,41.08,0,0,0,2.53,7.06,19.72,19.72,0,0,1,1.7,4.55,20.59,20.59,0,0,0,2.06,4.86,29.14,29.14,0,0,1,2.66,7.7,50,50,0,0,0,1.83,7.35c.68,1.92,2.65,8.23,4.39,14s3.7,11.69,4.36,13.14a58,58,0,0,1,2.2,5.87c.87,2.81,1.45,3.33,4.23,3.8,9.44,1.58,13.29,4.64,13.29,10.56a20.72,20.72,0,0,1-1.29,6.7c-1.22,2.95-1.17,3.3,1.3,7.77,2.87,5.21,3.22,8.14,1.38,11.68-1.08,2.1-1,2.78.42,6,2.17,4.76,2.11,7.45-.17,9.89-2.56,2.73-1.62,4.41,3.82,6.83,6.73,3,8.76,5.56,9.24,11.65.23,2.91,1,5.72,1.82,6.66,1,1.14,1.45,3.37,1.48,7.44,0,4.84.45,6.39,2.41,9.22,2.82,4.08,3,8.16.69,13.18a32.81,32.81,0,0,0-2.24,6.93c-.68,3.89-3.35,6.7-9.57,10.07-2.36,1.27-5.11,2.8-6.13,3.4a13.05,13.05,0,0,1-5.35,1.08,13.22,13.22,0,0,1-5.36-1.08c-1-.6-3.07-1.78-4.56-2.62-4-2.3-16.83-3-22.93-1.29a76.72,76.72,0,0,1-11.8,1.9c-3.85.31-9.76.94-13.13,1.4-5.56.77-19.28,2.43-23.64,2.86a13.48,13.48,0,0,0-4.89,2.58c-3.65,2.78-5.22,2.9-14.34,1-7.36-1.52-10.47-1.2-11.29,1.16-.3.85-2,4.11-3.75,7.24-8.13,14.42-8.37,15.22-5.92,20.37,1.38,2.88,1.34,3-2.41,10.75-3.6,7.43-4,7.94-8.39,10-3,1.38-4.6,2.67-4.6,3.66a42.17,42.17,0,0,0,2.53,7.93c2.26,5.73,2.93,6.61,6.35,8.37,5,2.56,9.15,7.11,10.29,11.25,1,3.47.07,12.88-1.64,17.38-2.31,6.08-.3,9.38,7.18,11.8a12.39,12.39,0,0,1,8.1,9.5c.28,1.8.92,5.15,1.44,7.45a17.7,17.7,0,0,1,.4,6.37,6.53,6.53,0,0,0,.47,4.06c.55,1,1.34,4.83,1.74,8.42s1.28,7.16,1.95,7.94c2,2.33,5.79,11.1,6,13.79a23.59,23.59,0,0,1-.88,6.2c-1.06,3.81-.74,5.14,2.91,11.63.67,1.2,1.89,3.84,2.71,5.85a23.39,23.39,0,0,0,3.83,6.13c3.44,3.64,4.45,6.69,4.45,13.35,0,5.39,1,10.24,3.63,18,3.87,11.36,7,19.12,8.52,21.3,2.32,3.26,4,10.75,3.28,15-.41,2.59-.16,3.6,1.22,4.85a5.13,5.13,0,0,1,1.74,2.73c0,.63,1.22,2,2.73,3.15,4,2.92,7.08,7.72,5.89,9.16-.52.63-.61,1.2-.19,1.25s1.36.16,2.07.22,1.6,1.5,2,3.62c1.41,6.93,4.17,15.16,5.44,16.22a3.43,3.43,0,0,1,1.29,2c0,.5,1.67,3.11,3.72,5.8,4.86,6.39,5.81,8.28,5.72,11.38,0,1.41,1,4.66,2.43,7.23,4.91,9.19,7.55,15.1,8,17.91s.3,3.25-7.84,17.85a37.91,37.91,0,0,0-3.23,10,42.15,42.15,0,0,1-2.81,9.51l-1.77,3.45,1.78,4.51c2,5.06,5.76,22.81,7.64,36,.7,4.86,1.41,18.29,1.6,30.2.58,36.67,2.4,51.65,7.82,64.34a46.83,46.83,0,0,1,2.83,9.1c.45,2.89,1.39,4.56,3.89,6.83l6.89,6.39c3.81,3.51,4.66,6.74,2.27,8.76-2,1.66-1.65,2.89,3.39,10.68,2.59,4,5,8.23,5.36,9.45,1.23,4,4.76,10.42,6.46,11.56a17,17,0,0,1,3.7,4.64c1.13,1.93,3.13,5.08,4.47,6.92,2.7,3.76,3,6.83,1.13,10.15a12.3,12.3,0,0,0-1.29,4.82c-.07,5.78-5.59,10.5-11.47,9.89-1.62-.18-2.19.18-2.4,1.66-.36,2.63-3.36,4.64-6.7,4.64a67.18,67.18,0,0,0-9.66,1.67,116.77,116.77,0,0,1-12.69,2.27c-5.36.53-5.82.44-7.81-1.66-2.21-2.36-4.8-3-5.81-1.31-.87,1.4-13.36,0-17.24-1.93-2.61-1.31-3.29-2.19-3.29-4.11a6,6,0,0,1,1.06-3.51c.79-.78.8-1,0-1-1.26,0-4.57-6.3-4.57-8.66a11.71,11.71,0,0,1,1-3.94c.89-1.93.62-2.63-2.63-6.31-2.62-3-3.62-4.9-3.62-6.91a33.9,33.9,0,0,0-1.37-7.36c-1-3.32-1.12-5-.44-5.6,1.21-1.23,1.21-6,0-8.75-.71-1.58-.71-3.33,0-6.66.82-3.76.75-5-.41-7.26a7.77,7.77,0,0,1-.9-4.56c.54-2.19-1.16-9.28-3.16-13.22-.74-1.4-1.81-6.12-2.38-10.5s-1.25-8.84-1.51-10.07-.54-7.7-.64-14.45c-.15-10.76-.45-13-2.47-18.38-2.74-7.35-4.71-11.38-7.27-14.87-1.85-2.56-13.2-26.27-15.1-31.52-.52-1.45-2-5.39-3.34-8.76a126.88,126.88,0,0,1-4.38-14.88c-2.38-10.55-3.6-15.35-4-15.77-.17-.17-5.82-.55-12.56-.83-17.16-.72-30.35-4.56-33.16-9.65-.53-1-2.05-3.4-3.39-5.44s-4.23-7.16-6.42-11.39a69.63,69.63,0,0,0-5.65-9.47,20.94,20.94,0,0,1-3.06-5.69c-1.51-4.2-5.56-25.83-5.64-30.18-.05-2.47-1.68-5.8-8.54-17.32-1.57-2.63-2.84-5.83-2.84-7.11a3,3,0,0,0-2.24-3.17c-1.64-.63-3.1-2.69-5.35-7.57a67.1,67.1,0,0,0-6.51-11c-1.88-2.37-3.41-4.78-3.41-5.35s-1.71-3.79-3.79-7.14c-5.13-8.26-11-19.8-18.35-36.31-8.86-19.82-13.21-28-14.82-28-2.82,0-6.19,2.26-11.25,7.58-6.91,7.26-8.62,9.73-16.18,23.5-3.72,6.74-8,14-9.52,16.19s-4,6.1-5.46,8.76a55,55,0,0,1-6.39,8.75c-5.2,5.57-7,8.6-12.21,21a128.45,128.45,0,0,1-7.8,15.76c-2.7,4.08-3.2,5.62-3.33,10.15a23.79,23.79,0,0,1-2,9c-1.83,3.78-3.09,5.6-12.42,18-2.9,3.85-7.13,9.51-9.4,12.59s-5.16,6.82-6.42,8.31c-2.55,3.05-3.64,8.06-2.24,10.31a2.19,2.19,0,0,1-.32,3c-3,3.58-14.94,11.44-21.4,14.05-3.86,1.56-8,3.81-9.28,5-2.28,2.18-5,10.35-6.92,20.74-2.72,14.71-4.65,22.21-8,31-3,7.93-4,9.61-9.72,16.56-2.39,2.91-4.18,6-4.18,7.16s-1.32,3.51-3,5.27a15.93,15.93,0,0,0-3.59,5.95,70.32,70.32,0,0,1-4.38,10.68c-2.09,4.38-5.21,10.86-6.92,14.44s-4.11,8.32-5.31,10.51c-2.65,4.82-5.05,22.32-3.65,26.7.46,1.49,1.94,6.92,3.3,12.17,1.59,6.13,3.16,10.24,4.43,11.64,1.9,2,1.92,2.19.48,4.56a13,13,0,0,0-.27,11.29c4.21,8.23-12.26,22.85-30.75,27.4-12.36,3-14.23,4.38-21.24,15.85-3.14,5.08-5.36,6.56-12.88,8.49-3.27.88-10.57,2.8-16.22,4.38s-11.64,2.71-13.31,2.71-5.71,1-9,2.28a57.94,57.94,0,0,1-21.7,3.15Zm61.18-29.59c1-2.45.56-3.33-.75-1.58a6.08,6.08,0,0,0-1.31,2.37c-.06,1.22,1.53.61,2.06-.79Zm469.37-1.58c3.73-1.57,4.12-4,.64-3.94-2.69.09-7.36,2.45-7.89,4.12-.49,1.49,3.53,1.31,7.25-.18Zm10.44-3.15c1.16,0,1.42-.26.82-.87-1.06-1-6.47-.18-6.47,1,0,.52.89.7,2,.35A18.76,18.76,0,0,1,865.18,1115.57Zm-26.66-1.31c2.07-1.14,2.09-1.23.33-1.32a4.35,4.35,0,0,1-2.93-1.31c-.58-.7-1.32-1.22-1.64-1.14-2,.27-2.76-.43-2.76-2.45,0-3.41-2.17-2-2.27,1.49-.13,4.47,1,6,4.27,6a11.8,11.8,0,0,0,5-1.31Zm42.46.44c.34-.53-1.07-.88-3.67-.79-3.41.09-3.8.26-2,.79C878.43,1115.75,880.36,1115.75,881,1114.7Zm-23.2-3.86a114,114,0,0,1,17.51-1.31c6.75,0,10.59-.44,14.45-1.66l5.25-1.67-3.5-1.57c-2.64-1.23-5.87-1.58-13.07-1.67-6.6-.08-9.68-.52-9.92-1.22-.49-1.49,2-2.28,6.71-2.1,6,.08,8.32-.53,7.18-1.93-.63-.7-2.82-1-6.86-.79-9.22.35-12.32,1-19.45,3.86-7.28,3-8.21,3.23-11.48,3.32s-6.5,3.33-5.14,5a4,4,0,0,0,2.77,1.23c1.25,0,1.58.44,1.19,1.4-.61,1.57-1.61,1.66,14.36-.88Zm-23.1-10.33c4.65-3.15,6.13-4.9,5-6-.57-.52-1.64-.26-3.13,1a8.29,8.29,0,0,1-3.32,1.75c-3.38,0,9.2-8.76,14.91-10.42a136.77,136.77,0,0,0,16.2-6c.47-.27-.51-.88-2.19-1.32s-3.95-1-5-1.22c-1.4-.35-2-.09-2,.87,0,1.84-1.21,2.11-9.2,2-6.86-.09-7-.09-7-2.28a6.74,6.74,0,0,0-2-4.11,6.88,6.88,0,0,1-2-3.77c0-1.22-.59-1.75-2.09-1.75-3.18,0-3.53-2.45-.9-6.21,2.83-4.12,2.34-6.48-1.18-5.78-5.66,1.14-5.89,1.14-6.18-.88-.6-4.29-1.7-1.66-1.75,4.2,0,5.52.15,6.31,1.66,6.66a3.73,3.73,0,0,1,2.18,2.8,17.68,17.68,0,0,0,1.37,3.85c.48,1,.82,3.85.75,6.57-.19,7.18-.22,7,2.41,7.35,1.38.18,2.52.88,2.67,1.66.39,2.11-2.09,4.21-4.17,3.68-1.64-.44-1.77-.09-1.77,5.34,0,6.48.12,6.57,6.66,2.1Zm-424,.53c3.25-1.67,3-2.37-1.2-3.68-3.15-1-3.82-1-5.2.35-1.3,1.14-1.41,1.75-.62,3.5,1,2.28,2.19,2.28,7-.17Zm-24-1.4c1.86-1.84,1.18-3.33-1.56-3.33-2.46,0-2.55.09-1.61,2.19C384.56,1101,385.09,1101.13,386.61,1099.64Zm459.28-.35c.77-.27,1.39-.88,1.39-1.4,0-1.23-3.73-.44-4.16.87C842.72,1099.9,843.72,1100.08,845.89,1099.29Zm-419.6-2.54c6.28-2.89,10.62-6.92,13.38-12.43,2.37-4.82,3.23-9.37,1.12-6-2.87,4.55-8.76,11-11.65,12.87-8,5.16-9.64,6-11.5,6-1.08,0-2,.43-2,.87C415.67,1099.64,421.53,1098.94,426.29,1096.75Zm-7.12-4.9c5.88-3,11.72-9,13.46-13.84s1.42-13.48-.53-14.62c-.56-.35-3.84,2.37-7.64,6.39-3.66,3.86-8.38,7.88-10.47,9-3.57,1.75-4,1.84-7,.61a39.11,39.11,0,0,0-5.75-1.92,39.62,39.62,0,0,1-6.3-2.28c-4.69-2.1-5.77-2.1-7.81.18-1.63,1.75-1.63,1.84,0,3.06,1.38,1,1.5,1.58.72,3.33s-.64,2.27,1.56,3.94a11.12,11.12,0,0,0,3.46,1.84c1.73,0,2-2.72.41-4.38-2.85-3.15-.46-3,4.41.44,5.33,3.59,6.17,5.25,2.31,4.37-1.78-.35-2.66-.17-3,.79-.56,1.4,4.28,2.72,6.72,1.75.79-.26,3.19,0,5.33.62,3.13,1,3.69,1.4,2.91,2.36s-.53,1,1.57.52A31.26,31.26,0,0,0,419.17,1091.85Zm467.5-6.75c0-.43-1.14-1.57-2.54-2.62l-2.53-1.84,1.28,2.54c1.17,2.36,3.79,3.68,3.79,1.92Zm-5.25-9.45c0-4.11-15.86-19.61-20.14-19.61a17.22,17.22,0,0,1-4.95-2.19c-2.84-1.66-3.8-1.93-3.8-1,0,1.58,3,3.59,6.35,4.46,1.32.27,2.4,1.14,2.4,1.84,0,1.23-4.9,3.07-8.15,3.07-.86,0-1.34.44-1,.87a2.46,2.46,0,0,0,2,.88,10.83,10.83,0,0,1,3.67,1.22c1.21.7,5.54,2.89,9.63,4.91s8.43,4.11,9.63,4.81c2.25,1.32,4.38,1.67,4.38.79Zm-33.43-3c2.24-3,2.34-3.5.7-3.5-2.21,0-5.06,3-4.43,4.64C845.07,1075.91,845.78,1075.74,848,1072.67Zm-433.53-.17c4.92-3.77,5.06-5.52.55-6.74-4.94-1.4-5.69-1.32-4.59.78a3.17,3.17,0,0,0,2.22,1.76c.7,0,1.28.43,1.28.87,0,1.75-3,.79-6.62-2.19a26.28,26.28,0,0,0-4.25-3.06,7.13,7.13,0,0,1-2.33-1.84c-1-1-2.09-1.58-2.41-1.23-.56.62,9.32,10.07,10.47,10.07.31,0,.76.79,1,1.75.58,2.28,1.54,2.19,4.66-.17ZM390,1069c1.6-.62,2.91-1.32,2.91-1.58,0-.88-6.76-6.13-7.83-6.13s-1.2,4.82,0,7.09c1.06,1.93,1.16,2,4.93.62Zm9-2.37c0-.79-6.23-5.34-7.36-5.34-.37,0,1,1.4,3,3.07C398.56,1067.6,399,1067.86,399,1066.63Zm24.07-1c.3-.44-.07-.88-.82-.88s-1.37.44-1.37.88a.83.83,0,0,0,.83.87A1.75,1.75,0,0,0,423.11,1065.67Zm17.07-.79a1.76,1.76,0,0,0-.87-1.4c-.48-.26-.88.09-.88.79s.4,1.4.88,1.4A.83.83,0,0,0,440.18,1064.88ZM421.36,1056c.3-.44.12-.88-.38-.88a.94.94,0,0,0-.93.88c0,.52.17.87.38.87S421.06,1056.56,421.36,1056Zm418.95-1.93c3.45-2.54,3.27-4-.57-4.72-3.42-.62-4.68.35-4.7,3.67,0,3.5,1.55,3.85,5.27,1Zm-434.47-7c-.54-1.58-2.43-1.84-2.43-.35a1.39,1.39,0,0,0,1.39,1.4C405.57,1048.16,406,1047.72,405.84,1047.11Zm418.67.26c0-.79-2-1.84-3.57-1.84-.44,0-.8.62-.8,1.32s.83,1.31,2.19,1.31C823.53,1048.16,824.51,1047.81,824.51,1047.37Zm11.17-1c1.79-.7,2.86-3.41,1.31-3.41a96.59,96.59,0,0,0-9.68,3.06c-.63.26-.9.88-.59,1.31C827.29,1048.25,831.89,1047.72,835.68,1046.32Zm25.22-4.38c.32-.52,0-1.57-.73-2.27-1.14-1.14-1.77-1.14-4.53-.18l-3.22,1.23,2.9,1C859.06,1043.08,860.17,1043.17,860.9,1041.94Zm-26.13-5.6c7.8-1.57,8.44-1.57,7.85-.09-.69,1.75,2.83,2.46,5,1a9.31,9.31,0,0,1,4.53-1.32,7.44,7.44,0,0,0,3.17-.43c.77-.79-1.41-6.57-2.47-6.57a2,2,0,0,1-1.53-1.4c-.62-1.58-3.27-1-6.76,1.4a15.58,15.58,0,0,1-5.69,2.19,17.48,17.48,0,0,0-5.3,1.84,40.84,40.84,0,0,1-8.11,2.62c-3.4.7-6,1.67-5.74,2.1C820.26,1038.53,826.2,1038,834.77,1036.34ZM420.49,1035c.29-.44-.1-.88-.88-.88s-1.17.44-.87.88.69.87.87.87S420.19,1035.55,420.49,1035Zm414-5.08c7.51-1.84,13.7-4.73,13.7-6.39s-2.7-1.75-5.55,0a11.82,11.82,0,0,1-4.18,1.84,12,12,0,0,0-3.73,1.31,27,27,0,0,1-6.13,1.93c-2,.26-4.1.87-4.69,1.4s-2.8.52-5,.26c-3.66-.61-4.87,0-3.3,1.58,1,1,10.48.08,18.92-1.93Zm-425.76-4c-.69-1.84-.42-2.54,1.68-4.29,1.91-1.57,2.39-2.62,2-4.37-.56-3-3.25-3.16-4.75-.35s-1.51,9.36.11,10.24a11.31,11.31,0,0,0,1.54.87,6.75,6.75,0,0,0-.62-2.1Zm412.83.44c-.43-.7-4.88-.26-4.88.44a5.74,5.74,0,0,0,2.67.35C820.79,1027.15,821.78,1026.8,821.52,1026.36Zm16.66-6.21c2.18-.88,2.75-4,1.53-8.58-.7-2.63-2-2.11-4.56,1.75a14.32,14.32,0,0,1-5.47,4.64c-1.87.87-3.41,1.92-3.41,2.27,0,1.67,7.37,1.58,11.91-.08ZM839,1002c-.61-.61-2.27.62-2.27,1.67,0,.52.51.52,1.34-.18s1.15-1.31.93-1.49ZM424.22,957.83c-.54-1.63-2.42-1.89-2.42-.35a1.39,1.39,0,0,0,1.38,1.39C424,958.87,424.42,958.4,424.22,957.83Zm391.35-60c3.51-1.24,6.58-2.59,6.83-3a2.92,2.92,0,0,1,2.17-.74c.93,0,1.7-.39,1.7-.86s-1.27-.66-2.85-.4c-5.4.85-12.48,2.32-17,3.54-5.69,1.53-6.44,1.52-6.44-.09,0-.7,1.09-1.54,2.41-1.84s5.23-1.26,8.67-2.14a142.51,142.51,0,0,1,16.63-2.6c5.71-.55,10.6-1.27,10.88-1.59.91-1.08,2.47-7.53,2.87-11.87.65-7.35-5.91-17.42-14.54-22.28-6.31-3.55-5.36-5.2,1.1-1.9,4.08,2.08,7.25,2.25,8.75.44a3.9,3.9,0,0,1,2.57-1.31c3.1,0,12.31-3.69,12.31-4.93a16.84,16.84,0,0,0-1.31-4.4,20.22,20.22,0,0,1-1.31-6.49c0-1.84-.34-3.56-.76-3.82-.68-.41-2-4.6-2.24-7.09a14.29,14.29,0,0,0-2-3.63,11.89,11.89,0,0,1-2-3.6c0-.47-.78-1.06-1.72-1.31-1.36-.35-1.68,0-1.53,1.43s-.22,1.85-2.44,1.69q-5.19-.37-6.07-7.95a93.3,93.3,0,0,0-1.92-9.8c-.79-3.14-1.63-7-1.86-8.61s-1-3.12-1.63-3.38a2.68,2.68,0,0,1-1.21-2.42,5.77,5.77,0,0,0-1.86-3.63c-1-.92-3.2-4.42-4.85-7.78a59.38,59.38,0,0,0-3.63-6.77c-.37-.36-2.26.14-4.22,1.11-2.84,1.41-4,1.58-5.94.86-2.79-1.06-2.24-2.65.92-2.65s2.2-1.85-1.43-3.06c-1.63-.56-3.14-1.57-3.37-2.25a6,6,0,0,0-2-2.4c-1.15-.82-1.4-1.59-.86-2.63,1-2,.17-8.09-1.25-8.63-.63-.24-1.41-1.69-1.74-3.21a11,11,0,0,0-1.71-4.08,11.7,11.7,0,0,1-1.72-4.2,8.9,8.9,0,0,0-3.13-4.73C784.31,731,774,716.64,774.74,716c.21-.2,2,.06,4.12.57,2.77.71,4.68,2.05,7.36,5.16,2,2.31,3.94,4,4.33,3.77s.7-3.61.7-7.49V710.9l-3.38-3.17a57.66,57.66,0,0,0-7.66-5.81c-3.25-2-4.28-3.15-4.28-4.78,0-2.3-4.67-6.16-7.45-6.16a9,9,0,0,1-4-2,48.48,48.48,0,0,0-6.46-4l-4-2,3.5.48a53.57,53.57,0,0,0,6,.49c1.69,0,3.5,1.09,5.87,3.52,1.89,1.92,3.91,3.5,4.49,3.5a4.9,4.9,0,0,1,2.44,1.15,31.78,31.78,0,0,0,6,3l4.6,1.85v-4.35c0-3.38-.34-4.46-1.53-4.84-.84-.26-3.11-1.19-5-2.07a53.91,53.91,0,0,0-8.31-2.66c-7.65-1.72-9.06-2.22-9.42-3.29-.69-2.08,4.49-2.21,11.8-.3s9,1.88,9-.28c0-2.31-2.91-3.53-9.09-3.78l-17-.66c-7.72-.29-11.32-.78-12.82-1.77a7.64,7.64,0,0,0-4.15-1.19c-4,.35-7.75-.11-7.75-1a1,1,0,0,1,1.09-.88,36.65,36.65,0,0,0,6.79-2.7c6-2.85,13-3.61,20.57-2.22,3.6.65,9.15-1.31,9.83-3.49.54-1.72-20.19-.43-25.4,1.58-2.05.8-2.64.68-3.64-.7-.66-.9-1-1.9-.85-2.21s3.14-1.26,6.55-2.09c6.58-1.61,8.38-3.33,5.61-5.37-2.1-1.54-8.13-1.47-10.92.14a16.37,16.37,0,0,1-6.45,1.27c-3.54,0-4.1-.17-3.27-1.18,1.24-1.48-1-2.62-3.53-1.81-2.05.65-2.1,1.78-.1,2.56,1.35.52,1.26.74-.66,1.76-2.14,1.13-20.92,3.46-21.69,2.68-.22-.22.22-1,1-1.77a2.84,2.84,0,0,0,.94-2.53,1.91,1.91,0,0,1,.7-2c1.84-1.42,14-5.41,18.22-6,6.74-.91,7.86-1.29,7.86-2.62,0-1.17,1.5-2,11.23-6.21,1.6-.69,2.74-1.74,2.53-2.34-.5-1.4-3.9-1-5.57.69a4.81,4.81,0,0,1-2.83,1.31,3.85,3.85,0,0,0-2.39.88c-.48.48-5.14,1.93-10.38,3.23-9.38,2.33-9.52,2.34-10.83.64s-1.43-1.65-7.34,1.2c-3.31,1.6-6.49,2.76-7.07,2.57s.1-.9,1.5-1.6c2.47-1.2,3.44-2.39,4.3-5.25.47-1.57,15.14-7.47,19.84-8,3.63-.39,11.38-3.28,11.38-4.25s-7.12.12-10.06,1.64c-1.46.75-5.17,1.42-8.32,1.5-4.82.12-6.74.69-12.59,3.78-3.79,2-7.54,3.64-8.32,3.65s-2.79,1.21-4.48,2.67a128.83,128.83,0,0,1-19.37,13.72c-7.54,4.43-19.39,9.85-21.57,9.85-1.49,0-8.08,3.31-10.07,5.07-1.25,1.09-1.77,1.15-2.63.27-1.54-1.57,2.31-4.49,12.49-9.44,13.37-6.51,17.47-9.44,40.58-29.07,13.73-11.66,26.6-19.35,32.37-19.35a19.28,19.28,0,0,0,5.79-2,27.84,27.84,0,0,1,9.69-2.27c3.13-.2,6-.7,6.51-1.12,1.09-1,4.82-9.89,4.36-10.35s-9.47,2-14.38,3.87c-1.68.62-8.66,2.76-15.51,4.75-14.27,4.16-17.88,5.53-19.46,7.45a3.79,3.79,0,0,1-2.29,1.37c-.64,0-4.43,3.1-8.43,6.89s-11,10.13-15.59,14.1-11.41,10-15.2,13.46c-9.17,8.33-9.57,8.53-8.81,4.48.58-3.09.52-3.19-1.26-2.23-2.13,1.14-2.52-.06-.56-1.68a3,3,0,0,0,.81-3.05,3.57,3.57,0,0,1,.89-3.34c1.53-1.53,1.85-2.77.49-1.93-.48.29-.87.12-.87-.4s.88-.92,2-.92,4.41-2.32,8.53-6.22c7.79-7.35,18.62-16.55,28.89-24.53,4.1-3.18,10.08-8.17,13.3-11.08,4.19-3.8,6.34-5.19,7.57-4.86,2,.52,5.21-1.33,10.42-6,4.35-3.9,5.48-4.13,5.48-1.07,0,1.92.28,2.16,2,1.64a11.07,11.07,0,0,0,3.51-1.94c1.37-1.21,1.53-1.21,1.53,0a4.42,4.42,0,0,1-2,2.71c-1.75,1.23-1.8,1.39-.34,1.42,2.05.06,12.23-4.76,13.64-6.45.88-1.07.51-1.37-2.3-1.82-1.84-.31-6-1.13-9.3-1.83-6.21-1.33-13.4-1-17,.86a57.29,57.29,0,0,0-7.62,6.43c-7.22,6.91-10.63,9-14.81,9-7.24,0-22.55,9.73-33.27,21.12-8.39,8.92-10.4,9.38-7.8,1.75,2.93-8.62,7.81-13.92,16.82-18.27a27.93,27.93,0,0,0,5.26-3.43c1.21-1.08,4.33-3.45,6.94-5.28a38.05,38.05,0,0,0,7.81-7.7,36.54,36.54,0,0,1,5-5.92c1.87-1.48,4.46-7.32,3.61-8.17s-5,1.39-5,2.62c0,.69-3.85,4.12-8.54,7.61s-12.47,9.54-17.29,13.43-9.89,7.8-11.28,8.69c-2.49,1.61-2.51,1.61-1.31-.08,2.77-3.92,6.8-8,8.47-8.49s7-6.62,5.86-6.62-4.54,2.19-6.63,4.5-5.21,3.41-5.15,1.84c0-.36,2.27-2.32,5-4.36,6.74-5,19-15.13,19.29-16,.16-.4-1.23-.85-3.06-1-2.61-.22-3.39-.68-3.6-2.1a3.6,3.6,0,0,1,1.09-2.95,4.28,4.28,0,0,0,1.36-2.89c0-3.21,3.34-7.24,11.13-13.44,8.83-7,11.25-8.29,14-7.26s2.45,2.3-.88,3.71a15.07,15.07,0,0,0-4.51,3.08c-1.66,1.86-1.65,1.88.69,1.88,3,0,7.25-1.88,10.55-4.62,2.09-1.73,2.59-2.88,2.73-6.19.18-4.38-.65-5-3.6-2.8-2.06,1.56-8.41,1.73-12.29.32-2.58-.94-3.15-.81-6,1.42a37.73,37.73,0,0,0-6.3,6.75c-4.17,5.8-9.87,8.7-11.05,5.62a10,10,0,0,1,.42-4.5c.71-2.61.59-3.92-.6-6.58-1.45-3.21-1.43-3.39.41-6a31.64,31.64,0,0,1,6.68-5.84c6.17-4.09,8.51-7,7.37-9.15a8.43,8.43,0,0,1-.86-3.41c0-2.41-1.39-2.27-3.86.39-1.12,1.2-2.43,2.19-2.92,2.19a3.37,3.37,0,0,0-1.95,1.27,41.5,41.5,0,0,1-5.58,4.36c-2.48,1.7-6.17,4.25-8.2,5.68a30.4,30.4,0,0,1-7.31,3.68c-3.34,1-5.2,2.8-4.08,3.92a20.29,20.29,0,0,0,5.14.94c2.57.26,5.14.84,5.68,1.29a4.4,4.4,0,0,1,.78,5.67c-1,1.43-1.37,1.43-5.87,0-3.84-1.21-6.65-1.39-14.77-1-12.54.67-13.64,1-9.15,2.88a67.39,67.39,0,0,1,7.44,3.8,31.82,31.82,0,0,0,6.28,2.92c4.45,1.09,5.42,3.17,4.79,10.26a50.81,50.81,0,0,1-1.79,9.86c-1.46,4.18-3.14,4.61-10.16,2.6-2.64-.76-6.73-1.79-9.07-2.27-4.4-.92-23.42-8.25-30.32-11.7s-8.48-3.49-11.31-.4-5.54,3.2-6.05.5c-.18-.89,1.06-3.64,2.74-6.12a83.15,83.15,0,0,0,5.32-9.31c1.83-3.91,6.78-10.51,7.89-10.51.14,0,2.39,1.17,5,2.61a26,26,0,0,0,5.86,2.63,9.29,9.29,0,0,1,3.57,1.81c2.79,2.06,12.38,3.47,12.38,1.82a1.16,1.16,0,0,0-1.27-1c-2.16,0-5.74-2-5.74-3.16,0-1.64,1.4-2.25,6-2.61,6.4-.5,8.85-1.16,13-3.48,3.69-2.06,3.86-2.09,3.33-.41-.66,2.06,1.13,2.38,4.21.77,3.67-1.94,21.6-15.77,21.6-16.67,0-.5-.94-.73-2.11-.51-3,.58-2-1.06,2.37-3.9,2-1.31,4.43-2.89,5.33-3.5,1.31-.88,1.72-.89,2,0a1.86,1.86,0,0,0,1.63,1.1c1.13,0,1.3-.33,1.23-2.4,0-.36-1.3-.53-2.84-.38-7.54.73-21.08,7.12-29.6,14-13.26,10.65-34.32,18.43-29.66,11,1.54-2.48,5.25-4.79,17.21-10.73,8.13-4,12.36-6.8,17.72-11.6,3.88-3.46,7-6.8,7-7.4s1.54-2.33,3.43-3.85c3.9-3.14,4.87-5.54,3-7.41s-2.71-1.67-8.05,3.2c-2.71,2.48-7.1,6.1-9.75,8s-7,5.34-9.64,7.56c-5,4.2-5.43,4.52-14.92,10.9a52.45,52.45,0,0,0-6.94,5.31c-1.46,1.76-6,4.18-7.06,3.81s.08-1.87,4.41-5c2.17-1.55,6-4.47,8.46-6.5s7-5.64,10.06-8,7.18-5.73,9.17-7.44c6-5.21,8.44-7.18,13.24-10.81,5-3.75,5.6-5.58,2.8-8.12-1.49-1.34-2.1-1.44-3.5-.57-3.64,2.28-7.28,1.3-12.62-3.37-2.77-2.43-5.18-4.3-5.34-4.16l-3.46,2.9c-1.74,1.44-5.2,4.47-7.68,6.73s-4.66,4-4.85,3.78c-.4-.4.63-1.65,6.63-8.09,4.83-5.18,5.53-6.94,3.16-7.85-1-.38-2,.27-3.23,2-2.3,3.27-24.39,25-24.9,24.48s7.79-10.11,8.72-10.11c.39,0,1.91-1.68,3.38-3.72a107.4,107.4,0,0,1,7.71-9c7.19-7.51,8.88-10,8.88-12.91,0-2.75-3.77-7.08-7.07-8.13-1.85-.59-12.92,4.52-16.13,7.43-2,1.83-17.83,7.92-20.57,7.92a12,12,0,0,0-4.42,1.33c-1.42.73-6.81,1.91-12,2.61-12.7,1.7-15.47,2.59-16.71,5.29-2.06,4.52-.91,10,2.1,10a3.43,3.43,0,0,0,2.53-.82c.28-.44,1.78-1.07,3.34-1.42,4.59-1,18.85-6.45,27.57-10.57a93.28,93.28,0,0,1,8.71-3.83,14.26,14.26,0,0,0,3.49-2.79c1.58-1.53,3.18-2.47,3.55-2.08s-.13,1.14-1.09,1.69a32.73,32.73,0,0,0-4.92,4.19c-2.73,2.76-6.44,5.54-12.06,9.06a11.49,11.49,0,0,0-1.84,1.37,59.7,59.7,0,0,1-5.53,3.38c-5.84,3.31-15.71,12.1-15.2,13.54.18.53,1.08.83,2,.67,2.86-.5,16.33-7.17,21.35-10.56,7-4.7,7.37-4.92,6.47-3.49-2.11,3.33-20.46,20.12-23.27,21.29-2.31,1-4.82,1.21-8.75.86l-5.53-.49,3.5,2.91c1.92,1.6,5.27,4.72,7.44,6.91a38.66,38.66,0,0,0,8.9,6.42c7.3,3.53,7.62,4.12,6.82,12-.75,7.54-1.76,10-4.4,10.84-3.41,1.08-7.66-.5-15.41-5.71C557.64,540.84,547,531.3,547,529.7c0-3.22-8.32,4-16.27,14.2-8.43,10.75-10.68,13.54-14.19,17.57-9,10.26-15.12,20.5-17.74,29.46a96.93,96.93,0,0,1-8.64,20.38c-.41.72-1.9,3.68-3.31,6.57-2.21,4.5-2.45,5.71-1.76,8.53.45,1.81,1.14,3.29,1.55,3.29s2-1.88,3.54-4.16c3.52-5.27,13.06-15.1,14.62-15.1.87,0,1,.7.62,2.61-.48,2.17-.34,2.54.8,2.1.76-.29,1.39-.23,1.39.14,0,.77-6.08,11.77-7.24,13.08-.42.49-2.53,3.84-4.65,7.45s-5.62,8.93-7.75,11.82-3.91,5.71-3.94,6.28a10.7,10.7,0,0,1-2.25,3.62C478.86,661,471.4,676,469.19,682.87c-1.18,3.66-2.09,10.17-2.75,19.65-.89,12.89-.85,14.48.54,17.55,1.48,3.29,1.47,3.49-.37,7.28-1.35,2.8-2.41,3.9-3.75,3.9-2.47,0-10.25,5.1-10.9,7.14a6.32,6.32,0,0,0,0,3.23,44.56,44.56,0,0,1,.63,7.66c.1,5.28-.25,6.68-2.64,10.93-3.4,6-3.54,9.39-.51,12.24l2.25,2.11,7.75-8.09c7-7.35,10.51-9.7,10.51-7.13,0,.53-1.51,2.68-3.36,4.78a56.68,56.68,0,0,0-6.24,9.33,54.39,54.39,0,0,1-4.42,7.26,12.36,12.36,0,0,0-2.16,3.94c-.61,2.12-1.86,4.28-7,12a87.79,87.79,0,0,1-9.65,10.53c-4,3.76-7.88,8.11-8.69,9.67-1.92,3.72-1.87,8.48.2,18.19,1.78,8.37,1.82,10.07.25,15.7a32.09,32.09,0,0,0-1,7.19c0,3.86,1.49,5.51,5,5.51a17.25,17.25,0,0,1,5.24,1.73,157,157,0,0,0,15.65,5.26c13,3.82,21.48,4.66,28.09,2.8a47.09,47.09,0,0,1,17.57-.63c5.79,1.08,10.59-1.2,16.29-7.7,5.09-5.82,10.18-14.44,10.18-17.25a3.57,3.57,0,0,0-.22-1.72c-.12,0-4.07,1.37-8.79,3.06-8.26,3-14.88,3.91-15.88,2.28-.26-.43.47-1.4,1.63-2.17a7.25,7.25,0,0,0,2.63-2.94c.28-.86,2.38-2.59,4.66-3.86a17.32,17.32,0,0,0,5.67-4.91l1.51-2.62-7.06,3.61c-3.89,2-7.92,4.07-9,4.64a61.55,61.55,0,0,1-8.68,2.85c-3.73,1-8.85,2.6-11.35,3.55s-4.89,1.41-5.28,1c-.62-.63,2.63-3.4,13.78-11.74,10.08-7.54,15.26-11.16,17.33-12.1s2.56-.89,3.65.58c.92,1.24,1.59,1.45,2.54.81.71-.48,4.57-3.13,8.59-5.86A95.18,95.18,0,0,1,533,815.42c4-1.75,10.13-6.93,9.27-7.79-.26-.26-3.34.73-6.84,2.21-6.16,2.6-13.89,4.19-15,3.1-.58-.58,6.52-7.88,11.54-11.87,3.73-3,8.46-3.39,7.59-.66-1.18,3.73,5.39.53,7.89-3.84a26.61,26.61,0,0,1,3.24-4.47c3.47-3.61,11.19-14.63,11.19-16,0-1.12-.44-1-2.18.65-2.83,2.66-2.83,1.45,0-1.92s2-4.63-1.46-2.82a49.81,49.81,0,0,1-6.73,2.61c-7,2.12-9.8,1.42-6.7-1.68,1.88-1.88,1.65-2.31-1.16-2.31-1.66,0-4.23,1.39-7.68,4.15a118.42,118.42,0,0,1-11.74,8c-3.61,2.12-8.61,5.23-11.1,6.9-4.81,3.2-8.12,3.39-6.5.38,1.05-2,7-7.41,17.93-16.23,4.64-3.77,8.43-7.15,8.43-7.53s3.23-3.4,7.17-6.72c8.05-6.8,27.85-26.2,27.85-27.3,0-.4,2-2.22,4.39-4.06,4.59-3.5,8.74-7.94,8.74-9.35s-4.46,1.83-8.44,6c-2,2.07-3.91,3.76-4.23,3.76s-1.94,1.38-3.57,3.07c-2.9,3-3.89,3.62-3.89,2.52,0-.74,19.92-20.2,23.44-22.89s4.64-1.91,2,1.66c-1.11,1.5-1.61,2.57-1.11,2.4,1-.38,12.47-9.86,18.59-15.43a28.57,28.57,0,0,1,4.61-3.72,15.57,15.57,0,0,0,3.36-2.61c2.07-1.88,3.41-2.46,4.86-2.09,1.62.4,2.19,0,3-2,1.84-4.85,5.08-8.18,8-8.18a9.25,9.25,0,0,0,5.32-2.23c5.31-4.47,3.33-1.18-3.47,5.76-3.83,3.91-7.92,8.71-9.08,10.65a45.83,45.83,0,0,1-4.51,6.2c-1.33,1.46-2.25,2.83-2,3,.51.51,6.35-3.82,9.72-7.2,1.46-1.46,5.19-4.82,8.3-7.47,6.07-5.18,11.43-9.92,17.05-15,8.49-7.75,13.6-11.09,17.79-11.64,1.3-.17,2.9-.44,3.57-.61a1.39,1.39,0,0,1,1.6.8.76.76,0,0,1-.77,1.09c-1.41,0-3.73,3.43-2.88,4.24.32.32,1.19-.31,1.92-1.39,1.65-2.46,4.12-2.67,3.5-.3a1.5,1.5,0,0,0,1.21,2.11c1.16.3,1.48.9,1.07,2-.49,1.29-.22,1.44,1.7,1,1.25-.32,2.52-.18,2.82.31s1.09.59,2.17,0c1.7-.91,7-.26,7,.85,0,.36,1.88.88,4.16,1.15,3.58.44,8.48,2,15.54,5.06a18,18,0,0,0,4.31,1c3.58.35,3.79,2.12.32,2.76-14.77,2.77-14.2,2.72-36.86,3.07-7.56.12-6.44-.57-14.75,9.08-3.61,4.2-3.36,5.35.62,2.75,2-1.31,2.15-1.31,2.15,0,0,.77.34,1.41.75,1.41s.57,1,.34,2.21c-.4,2.07-.28,2.15,1.93,1.31,3.36-1.28,3.43-1.17.95,1.5a10.66,10.66,0,0,0-2.22,3c0,1.57,2,1.53,4.26-.08l2.49-1.77-.41,2.16c-.49,2.55,0,2.65,3,.65l2.29-1.5-.45,2.38c-.32,1.64-.09,2.38.73,2.38.66,0,1.19.72,1.19,1.6,0,4.4,12.08,12.86,23.86,16.71,1.8.6,3.28,1.64,3.28,2.32,0,1.61-2.6,1.61-4.89,0-1-.69-6.09-2.3-11.36-3.58-13.4-3.28-20.71-6-27-9.9a47.48,47.48,0,0,0-7.57-4.06c-1.91-.58-1.71-.17,1.53,3.19,2,2.12,3.72,4.29,3.72,4.81,0,1.66,6.33,10.8,7.47,10.8.6,0,1.36,1.07,1.69,2.4a11.67,11.67,0,0,0,2.14,4.16c3,3.36,7.24,11.24,7.72,14.22a13.79,13.79,0,0,0,3.35,6,16.26,16.26,0,0,1,3.35,5c.63,2.45,8.54,13.85,10.22,14.73a17.82,17.82,0,0,0,3.67,1.18c2.45.51,3.3,2.66,1.32,3.31-.84.29-.85.85,0,2.7,1.84,4-.41,2.67-7.13-4.34-3.53-3.67-6.64-6.31-6.92-5.85-1.15,1.86,7,15.84,14.53,25,6,7.28,18.47,18.65,26.44,24.11,1.92,1.32,4.87,3.61,6.56,5.1,8.58,7.56,14.62,13.18,16,14.93,1.78,2.23.68,3.49-1.87,2.12-1.35-.71-1.64-.6-1.55.58.57,7.12-20.85-8.6-32.46-23.81-4.1-5.37-19.56-21.48-20.61-21.48-1.49,0,.46,4,4.27,8.76,7,8.75,11.5,16.05,17.78,29,5.46,11.28,8.79,20.94,7.17,20.86s-4.76-3.93-7.3-8.93c-8.79-17.29-10.34-19.33-10.3-13.58.06,10.37,4.68,24.25,10.79,32.4a20,20,0,0,1,2.76,5,12.12,12.12,0,0,0,1.75,3.51,10.6,10.6,0,0,1,1.71,3.28c.81,2.64,2.21,3.28,13,5.87,8.92,2.16,17.29,2.91,17.27,1.57,0-1-6.67-4.6-8.49-4.6-3,0-15.15-5.05-18.49-7.69-1.69-1.34-1.83-1.79-.83-2.62s2.59-.67,6.85.32c5.16,1.2,8.89,3,6.26,3-2.17,0-.93,1.61,2.21,2.85,2.4,1,3.64,1.05,4.76.35s3-.29,8.18,2c10,4.37,17.17,8.4,16.42,9.17-.37.37-.07.59.65.49,2.65-.38,3.5.06,3.5,1.81,0,3.4,4.23,4.2,19.66,3.74,12.18-.36,14.89-.71,20.42-2.66Zm-73-17.3c-.93-.7-1.3-1.28-.82-1.29,1.31,0,3.53,1.54,3,2.09-.26.26-1.23-.09-2.16-.8Zm74.91-8a79.33,79.33,0,0,0-16.44-2.48c-14.62-.66-16-1.89-5.66-4.93,8.94-2.61,15.84-3,23.85-1.35,4.92,1,7.07,1.92,8.54,3.61,3,3.39,2.64,5.09-.6,3.23-2.83-1.63-4.91-.72-2.47,1.07,1.53,1.11,2.13,3.2.88,3C825.25,874.68,821.61,873.7,817.51,872.56Zm-57.32-10c-.48-.77,4.74-3.53,6.65-3.53a.75.75,0,0,0,.77-.71c0-1.59,12.7-6,13.52-4.63.71,1.14-.85,2.28-8.27,6C765.65,863.36,761.27,864.34,760.19,862.6Zm17-24.64c-12.72-4.31-33.52-17.68-50.94-32.73-3.34-2.89-7.37-6.25-9-7.44-3.36-2.56-9.68-9.51-9.13-10.06.21-.21,3.14,1.48,6.51,3.74s9.07,5.68,12.66,7.58c12.23,6.47,33.35,19.78,38.59,24.32a10.56,10.56,0,0,1,2.89,3.9c.4,1.3,3.35,3.33,9.3,6.38,4.79,2.46,8.71,4.85,8.71,5.32,0,1.26-4.24.82-9.63-1Zm22.08-9.62c-3.23-.66-4.57-1.49-4.57-2.85,0-.79,2.22-1,8.53-.78,9.29.32,11.88-.42,9.87-2.83s-8.51-4.88-17-6.49c-9.06-1.72-12.51-3.17-14.37-6-1.24-1.9-1.19-2,1.37-2a16,16,0,0,0,4.27-.59c1.55-.57,1.55-.54,0,1.24s-1.56,1.86,0,2.69c2.11,1.13,16.47,4.53,19.14,4.53,1.66,0,6.72,3.41,12.66,8.53.25.2-.43,1.08-1.49,1.95-2.89,2.33-12.82,3.72-18.45,2.57Zm8.12-20.19a42.71,42.71,0,0,0-11.23-1.88l-6-.1,3.34-1.16a18.3,18.3,0,0,1,8.07-.58c3.79.47,4.63.35,4.3-.62-.79-2.43-13.29-5.11-24-5.14-3.82,0-5.69-.41-6.52-1.41-1-1.26-.45-1.37,6.24-1.12,14.24.54,24.74,3.68,29.74,8.87,1.88,2,3.21,3.89,3,4.3-.59,1-.75.92-6.92-1.16Zm-264-13.45c0-.78,8.26-11.17,10-12.66,2.69-2.23,1.24.7-3.26,6.54-4.13,5.4-6.78,7.78-6.78,6.11Zm277.09-.42a2.79,2.79,0,0,0-2.14-.87,11.6,11.6,0,0,1-4.1-1.3,34.18,34.18,0,0,0-7.09-2.25c-4.82-1-7-2.59-3.58-2.58,4.26,0,19.09,5.46,19.09,7C822.76,795.41,821.28,795.4,820.58,794.28ZM705,792.53c-.29-.48-.12-.87.39-.87a.9.9,0,0,1,.93.87c0,.48-.18.88-.39.88S705.31,793,705,792.53Zm88-5.25a7.77,7.77,0,0,0-3.5-.88c-2.25,0-5.09-1.35-4.35-2,.22-.21,3.69.21,7.71.95,4.72.86,6.88,1.59,6.13,2.07A6.28,6.28,0,0,1,793,787.28Zm17.6-5.88c-1.26-1-1.21-1.07.35-1.06a13.7,13.7,0,0,1,4.37,1.21l2.63,1.19-3-.14A9.54,9.54,0,0,1,810.6,781.4Zm-34.24-4.75c-4.08-1.43-8.62-2.92-10.06-3.32-6.38-1.76-26.22-8.85-27-9.65-1.81-1.81.49-2.08,5.79-.7,9.89,2.56,33.39,11.19,35.26,12.95a6.26,6.26,0,0,0,2.87,1.72,1,1,0,0,1,1,.88c0,.48-.09.84-.22.79s-3.56-1.24-7.66-2.67ZM483.57,757.59c-.65-1.06,2.59-3.33,11.33-7.93,3.85-2,10.27-5.87,14.27-8.53s7.45-4.65,7.69-4.42c.64.64-5.25,6.27-7.74,7.42a27,27,0,0,0-5.14,3.56c-1.62,1.42-6.5,4.26-10.83,6.3s-8.14,3.89-8.47,4.08-.83,0-1.11-.48Zm297.57-2.74a58.27,58.27,0,0,0-10.47-3.42c-12.1-2.84-17.43-4.47-18.08-5.53-.35-.57-.51-1.17-.35-1.33s3.59.47,7.62,1.4,8.79,2,10.6,2.28c3.68.66,13.28,4.83,16,7,1.75,1.38,1.75,1.38,0,1.4a15.35,15.35,0,0,1-5.26-1.75Zm-325.49-8.43c-1.5-1.5-.1-3.86,5.94-9.92,7.14-7.18,30.81-31.72,40.32-41.8,3.29-3.49,6.47-6.35,7.08-6.35s1.83-.91,2.7-2c2.8-3.54,3.55-3.47,3.55.32,0,3.42-.6,4.13-17.4,21.22-15.69,16-17.71,18.34-20.55,24.38C474.19,738.85,474,739,467,743c-6.71,3.79-10,4.79-11.36,3.44Zm292.7-2c0-.48.59-.87,1.31-.87s1.32.39,1.32.87-.59.88-1.32.88S748.35,744.86,748.35,744.38Zm-220.62-5.24c0-.4,1.24-1.78,2.77-3.06a37.94,37.94,0,0,0,5.2-5.7,32.79,32.79,0,0,1,6.64-6.24c4.64-3.18,5.1-3.57,22.35-19.36,13.63-12.48,18.83-16.94,26.95-23.12,6.05-4.59,16.54-11.69,17.28-11.69a53.71,53.71,0,0,0,6-3.94c3-2.17,6.51-3.94,7.72-3.94A5.53,5.53,0,0,0,626,660.9c1.57-1.58,10.43-8.77,11.92-9.69.65-.38,0,1-1.51,3-3.73,5.13-2,6.91,3.75,3.9,1.39-.72,2.68-1.18,2.85-1,.87.87-18.62,17.47-26.93,22.93-3.56,2.34-7.93,5.46-9.69,6.94a167.78,167.78,0,0,1-18.23,13.31c-15.43,9.56-17.48,11.11-21.41,16.11-2.26,2.86-4.43,5.22-4.83,5.22s-4.53,2.56-9.18,5.69-8.83,5.69-9.28,5.69a.77.77,0,0,0-.83.66c0,.65-2.1,1.7-7.44,3.76-4.81,1.86-7.44,2.46-7.44,1.72Zm-40.27-3.35c0-.38,2-1.53,4.38-2.54,5-2.13,5.66-1.58,1.47,1.28C490.43,736.49,487.46,737.13,487.46,735.79Zm282.34-4.48c-6-2.36-9.35-2.91-22.44-3.61-14.82-.81-19.58-1.74-18.92-3.68.25-.72,1.74-1,4.44-.8a74.85,74.85,0,0,0,12-.78c6.92-.94,8.74-.89,14.67.43,3.72.83,7.55,1.83,8.52,2.22s3.53,1.21,5.69,1.83c4.73,1.35,7,3,2.92,2.18-2.31-.49-2.86-.28-3.34,1.21-.62,2-.9,2-3.52,1Zm-271.06-2.47c.47-.85,5.39-5.83,10.93-11.07,6.8-6.44,10.17-10.25,10.36-11.72.2-1.66,2.19-3.52,8.14-7.56,9.8-6.68,16.2-10.44,16.77-9.86s-5.42,6.19-10.84,9.74a20.55,20.55,0,0,0-5.41,5.35,18.6,18.6,0,0,1-5.21,5.13c-3.65,2.29-9.21,7.09-15.6,13.43a25,25,0,0,1-4.3,3.72c-.3,0-1.32,1-2.27,2.19-2,2.53-3.86,3-2.57.65Zm250.26-13a42.47,42.47,0,0,1-7.44-2.39,31.72,31.72,0,0,0-8-1.83c-4.93-.53-9.54-2.19-15.41-5.53-3.39-1.93-26.75-11.21-30.42-12.08-1.32-.32-2.19-.93-1.92-1.36.87-1.41,8.55-.78,16.66,1.34a112.26,112.26,0,0,0,13.14,2.66,76.66,76.66,0,0,1,9,1.53l3.82,1-2.88,1.49-2.88,1.48,2.12,1.33c2.08,1.29,16.88,5.18,24.23,6.35,2,.34,3.5,1,3.23,1.41a1,1,0,0,1-1.33.31c-.44-.27-.81-.12-.81.34s1.23,1.62,2.72,2.56c3.67,2.32,2.28,2.83-3.82,1.41Zm-160-7.57c0-1.35,5.31-6.57,12.51-12.34,8.39-6.72,7.67-5-2,4.72-6.45,6.51-10.51,9.44-10.51,7.62Zm147-6.17c-1.8-.46-2.51-1-2-1.56.82-.81,11.17,1.06,12.34,2.23.7.7-6.89.21-10.37-.67Zm-265.78-2.82c-.79-2.07,1.4-9.14,4.23-13.68,1.4-2.24,3.52-6,4.71-8.32a175.33,175.33,0,0,1,10.67-17c5.83-8.46,14.18-18.39,16.21-19.27a15,15,0,0,0,4.43-3.34,21.41,21.41,0,0,1,3.36-3.17c.75-.48,2.41-1.62,3.7-2.53,3-2.08,3.83-1.27,2.22,2.08-1.3,2.7-11.16,14.87-20.95,25.87-3.12,3.52-6.56,7.55-7.62,9-2.67,3.55-11.22,20.2-12,23.35-.62,2.52-5.93,8.37-7.61,8.37-.46,0-1.07-.61-1.35-1.35Zm49.59-5.44c0-.65,5.68-5.51,7.41-6.34.5-.25,2.56-1.56,4.57-2.93s4.38-2.34,5.25-2.17c1.74.34-1.92,3.35-11.06,9.1-4.85,3-6.17,3.53-6.17,2.34ZM747.66,683.2c-1.59-.3-2.77-.93-2.63-1.41s.85-.76,1.57-.6l3.72.75c1.32.27,2.41.83,2.41,1.26C752.73,684,752.09,684,747.66,683.2Zm-12-2.3c-6.56-1.61-8.31-2.3-8.31-3.25,0-1.56,13,1.48,15.06,3.51,1.32,1.34-.56,1.26-6.75-.26Zm-193.68-1c.81-.81,1.77-1.18,2.13-.82s.07,1-.64,1.46C541.34,681.85,540.39,681.44,542,679.86ZM713.33,677c-3.24-.64-2.56-1.27,2.3-2.1,2.86-.49,8.91.77,10.35,2.15C726.94,678,718,677.93,713.33,677Zm-126.07-5.21c0-.33,2.23-2.56,5-4.94l5.93-5.2c.54-.48,2.75-2.24,4.91-3.9a28.48,28.48,0,0,0,4.64-4.21c.86-1.41,11.17-8.37,17.55-11.85,5.16-2.81,7.86-6.55,10.24-14.15,2-6.21,2-6.6.7-6.6s-12.15,7.78-14.92,10.81c-1.52,1.66-2.85,2.37-3.76,2-2.06-.8-1.11-2.1,10.46-14.46,5.58-5.94,11-12.45,12-14.44A32,32,0,0,1,643,599.8c.69-.79,1.82-4.73,2.5-8.76,1.67-9.92,2.13-11.25,3.84-11.25a3.92,3.92,0,0,0,2.44-1c1.27-1.27,2.88-.23,2.88,1.84,0,2.71-5.11,24-6.65,27.67a36.74,36.74,0,0,1-2.95,5.62,61.34,61.34,0,0,0-4,7.68c-2.13,4.79-2.31,5.77-1.33,7.59,1.5,2.81.44,9.62-2,13-1.94,2.64-6.25,5.23-10.32,6.21-2.74.65-16.77,9.73-21.48,13.92-4,3.56-9.23,6.79-11,6.79a15.66,15.66,0,0,0-4.49,1.66c-1.78.91-3.25,1.38-3.25,1Zm-55.15-8.52c6.24-2.89,15.58-4.78,14.44-2.92-1,1.61-6.19,3.27-11.89,3.8l-5.62.54,3.07-1.42Zm169.55,0c-1.39-1.39-.26-1.86,4.6-1.92a30.49,30.49,0,0,0,8.91-1.57c4.11-1.65,9.12-1.91,16.76-.87s6.08,2.31-2.62,2.33a68.52,68.52,0,0,0-12.92,1.29c-5.49,1.32-13.73,1.74-14.73.74ZM537.83,650.76c-.69-1.12,24.67-8.48,25.7-7.45.7.7-1.91,3-3.39,3a54.64,54.64,0,0,0-8.43,2.21c-7.51,2.41-13.19,3.32-13.88,2.22Zm151.43,0c2.4-1,3.26-1,2.62,0a3.12,3.12,0,0,1-2.46.8C687.57,651.46,687.57,651.42,689.26,650.71Zm4.37-1.75a1.91,1.91,0,0,1,1.42-.88c.48,0,.63.39.33.88a1.89,1.89,0,0,1-1.41.87C693.48,649.83,693.33,649.44,693.63,649Zm-50.34-2.09a5.49,5.49,0,0,1,1.54-1.53c1.39-1.09,1.41-1.06.33.33S643.29,647.59,643.29,646.87Zm-106.22-3.75a2.07,2.07,0,0,1-.58-1.19c0-1,11.94-4.49,17.85-5.27,2.94-.4,7.32-1,9.72-1.33,3.13-.43,4.13-.34,3.51.34-.49.51-3.84,1.4-7.45,2s-7,1.39-7.6,1.85c-1.24,1-11.47,4.22-13.48,4.22a3.3,3.3,0,0,1-2-.57Zm112.35-1.5a4.81,4.81,0,0,1,1.31-1.42c1.08-.89,1.32-.84,1.32.33a1.38,1.38,0,0,1-1.32,1.42C650,642,649.42,641.8,649.42,641.62Zm-127.8-11.71a5.6,5.6,0,0,1,.82-1.95c1-1.59,2.2-.59,1.49,1.25C523.41,630.58,521.59,631.12,521.62,629.91Zm24.28-3.43a3.56,3.56,0,0,1,2.19,0c.6.25.11.45-1.1.45S545.29,626.73,545.9,626.48Zm5.36-1.46a5.7,5.7,0,0,1,3.89-1.45c3.45,0,2.13,1.49-2.06,2.31-2.76.55-2.92.47-1.83-.86Zm17.63-3.86c0-1,4.72-3.46,5.92-3.06,1.7.56,1.26,1.6-1.16,2.69S568.88,622.12,568.89,621.16ZM561.22,613c-1.09-.43-2-1.24-2-1.79s.56-.78,1.25-.52a33.47,33.47,0,0,0,4.39,1.07c1.72.33,3.35.94,3.61,1.37.62,1-4.71.9-7.28-.13Zm4.59-6c-5.1-1.23-8.91-4.43-5.27-4.43,1.91,0,8.57,2.68,10.06,4.06,1.11,1,1,1.17-.43,1.09A28.8,28.8,0,0,1,565.81,607Zm5.69-16.72c-6.91-3.2-9.92-5.14-12.15-7.81l-3-3.54h2.78a21.43,21.43,0,0,1,7.33,2.27c5.74,2.85,19.82,11.95,19.86,12.83C586.44,595.78,579.77,594.1,571.5,590.27Zm84.76-14.44c-.26-.26,0-3.6.66-7.44,1.29-8.07,4.2-13.79,6.17-12.16,2.86,2.38.35,16.1-3.44,18.76C657.65,576.38,657,576.55,656.26,575.83ZM573,574c-3.29-1.78-3.08-3.69.43-4.06l2.85-.31-2.43-1.21c-5.1-2.55-.16-4,5.71-1.66,3,1.19,3.12,2.5.22,2.5-3.08,0-2.71,1.5.88,3.61a12.66,12.66,0,0,1,3.06,2.16C583.76,576,575.15,575.18,573,574Zm98.31-3.65a56.37,56.37,0,0,1,1.13-7.66c.89-4.26,1.41-5.25,2.8-5.25s1.71.58,1.62,5c-.12,6.16-1.71,10.32-3.95,10.32-1.21,0-1.63-.63-1.6-2.41ZM590.59,530.1c-2.27-1.8-5.92-4.6-8.1-6.22-4.33-3.21-5.14-5.37-2-5.37,1.09,0,5.45-2.53,9.68-5.61,11.72-8.54,16.14-9.81,11.66-3.34a18.57,18.57,0,0,0-2.32,4c0,1.1,2.15.65,5.48-1.14,7.91-4.23,7.27-.57-.78,4.51-5.15,3.26-6.65,5.22-4.86,6.33.7.44,15.49-9.23,17.23-11.27a42.05,42.05,0,0,1,5.69-4A46.81,46.81,0,0,0,628,504a38.93,38.93,0,0,1,4.82-3.45c2.17-1.38,6.62-4.65,9.91-7.26s6.14-4.57,6.36-4.36c.48.49-12.15,12-13.16,12-.57,0-6.9,4.34-7.47,5.11a17.12,17.12,0,0,1-2.65,2.14c-1.2.83-3.95,2.88-6.12,4.55-5.7,4.39-12.3,8.8-15.26,10.19-1.93.91-2.9,2.29-3.94,5.59-1.81,5.74-4.11,6.1-9.87,1.52Zm69.34-8.52a3.6,3.6,0,0,1,2.26-1.32c.7,0,1,.55.68,1.32a2.54,2.54,0,0,1-2.27,1.31C659.13,522.89,659,522.66,659.93,521.58Zm-54.65-14.34c-.27-.45.1-1,.81-1.31s1.31-.14,1.31.3c0,1.18-1.56,1.92-2.12,1ZM617.9,494a.91.91,0,0,1,.93-.88c.51,0,.69.4.39.88s-.72.87-.93.87S617.9,494.48,617.9,494ZM762.21,891.8a3.13,3.13,0,0,0-3.27-.81c-2.61.83-1.41,2.22,1.9,2.22C763.38,893.21,763.49,893.09,762.21,891.8Zm-26.12-12.11c0-.21-.39-.63-.87-.92s-.88-.14-.88.38a.91.91,0,0,0,.88.93C735.7,880.08,736.09,879.9,736.09,879.69ZM491.46,875.9c-.8-.79-3.24.66-2.66,1.59.39.63,1,.59,1.82-.12.69-.57,1.07-1.24.84-1.47Zm-69.94-22.25c-.27-.7-.48-.49-.53.52s.17,1.45.47,1.15A1.76,1.76,0,0,0,421.52,853.65ZM550,819.16a4.63,4.63,0,0,0,1.35-2.84c0-1.18-.37-1.06-1.75.6C547,820.05,547.31,821.85,550,819.16Zm135.6-39.69a5.07,5.07,0,0,1,.44-3.26c1.08-1.93-1-6.44-2.92-6.44-1.79,0-1.6,3.16.43,7.66,1.77,3.89,2.8,4.91,2.05,2Zm-117-10.79c1.05-2,1.06-2.41.05-2.41-1.69,0-3.75,2.6-4.48,5.66l-.63,2.6,1.91-1.72A17.44,17.44,0,0,0,568.55,768.68Zm108.75-2.46c-.46-3.07-2.49-3.21-2.49-.17a6.3,6.3,0,0,0,.6,3.15C676.42,770.21,677.6,768.33,677.3,766.22ZM607.51,701.7c1.09-1.39,1.06-1.42-.33-.33a5.55,5.55,0,0,0-1.53,1.53C605.65,703.62,606.37,703.16,607.51,701.7Zm182.16-10c-.81-.82-1-.59-1,1.05s.24,1.86,1,1S790.49,692.49,789.67,691.68Zm-90-11.64c-.27-.73-.9-1.32-1.39-1.32s-.43.55.2,1.32a5,5,0,0,0,1.39,1.31C700,681.35,699.92,680.75,699.64,680Zm-41.71-36.88c-.84-.84-3.33,1.44-2.7,2.47.31.52,1.09.31,1.9-.52S658.25,643.48,657.93,643.16ZM749,644.68c2.6-.08,3.72-.49,3.72-1.37a2.23,2.23,0,0,0-.75-1.72c-.81-.5-11.32,1-12.63,1.82s.8,1.7,3.51,1.54c1.33-.08,4.1-.2,6.15-.27Zm-36.82-15.2c2.73-1.57,9.7-5.21,15.5-8.1,9.74-4.87,13.15-7.44,9.81-7.44-1.29,0-7,2.33-12,4.93a11.12,11.12,0,0,1-3.93,1.2c-1.38,0-1.34-.19.36-1.37s2.83-5.64,1.38-5.64-10,6.46-14,10.65C701.14,632.13,702.59,635,712.19,629.48Zm40.1-4.16a39.69,39.69,0,0,1,5.69-2.2,19.29,19.29,0,0,0,5.65-3.49l3.47-2.94-2.32-1.05c-2.34-1.07-3.35-.75-10.9,3.47-.87.49-3.66,1.74-6.19,2.78-3,1.24-4.59,2.4-4.59,3.38,0,3.21,2.46,3.22,9.19.05ZM726,590.75c5.13-4.7,3.48-6.68-2.39-2.86-3.33,2.16-5.29,4.69-4.57,5.86S722.63,593.79,726,590.75Zm-45.41-10.12a30.7,30.7,0,0,1,5.69-4.23c1.61-.87,3.1-2.08,3.31-2.69.58-1.78-3.52-.21-5.54,2.11a9.5,9.5,0,0,1-3.58,2.57,11.29,11.29,0,0,0-3.87,2.73c-1.86,2-1.9,2.18-.4,2.18.9,0,2.88-1.2,4.39-2.67Zm-130-84.87c1.87-1.45,2-1.92,1.1-3.26-4-5.68-2.3-10.89,5.56-17.28,7.34-6,14.24-9.15,30.55-14,4.68-1.4,8.53-3.11,9.46-4.21,1.71-2,7.8-5,10.06-5,1.67,0,5.43-3.39,5.43-4.89a25.61,25.61,0,0,0-2.44-5.75c-2.43-4.65-6.3-13.11-7.17-15.63-.25-.72-2.7-3.42-5.44-6-3.74-3.51-5.82-4.79-8.35-5.13-3.15-.42-3.68-.14-8.18,4.37s-11.27,8-12.78,6.45c-.32-.32,1.85-3,4.82-5.9s5.66-6.34,6-7.61c.66-2.66-3.93-12.33-9-19-2.61-3.42-3.3-3.85-4.76-3.07a3.1,3.1,0,0,0-.68,5c1.42,1.41,0,4.43-4.47,9.23-4.11,4.46-8.84,13.57-9.46,18.23-.42,3.1-.15,3.57,4.39,7.72,3.37,3.09,5,5.27,5.31,7.26,2.13,12.29,1.92,11.86,4.57,9.36,1.2-1.13,2-2.6,1.73-3.26-.73-1.89,4.39-8.56,7.81-10.19,1.71-.8,3.1-2,3.1-2.68a2.27,2.27,0,0,1,.87-1.76c.5-.31.64,0,.34.82-.78,2,.45,1.68,6.16-1.76a23.19,23.19,0,0,1,9.63-3.56l4.45-.45-2,1.73a6.19,6.19,0,0,0-2,3.93c0,1.19-1.31,3.75-2.92,5.68a31.83,31.83,0,0,0-4.05,6.2c-.61,1.5-1.4,2.73-1.75,2.73a22.56,22.56,0,0,0-4.48,2.9,47.76,47.76,0,0,1-11.31,5.35,57.22,57.22,0,0,0-8.5,3.29c-.76.63-1.22.22-1.63-1.41-.76-3.05-2-2.85-2.71.43a6.22,6.22,0,0,1-2.24,3.72c-.92.57-3.29,3.76-5.25,7.09-2.75,4.67-3.34,6.37-2.65,7.49.94,1.49.78,14.39-.21,17.51a2.59,2.59,0,0,1-2.26,1.78c-.93,0-1.69.55-1.69,1.23,0,4.2,3.18,5.25,7,2.28Zm43.8-57.09a2.62,2.62,0,0,1,.91-2.06c1.54-.95,1.76.05.4,1.86-1.12,1.48-1.28,1.5-1.31.2Zm246.86,40.79a7.9,7.9,0,0,0-2-3.36l-2-2.23L833,476.52c-2.32,1.45-4,2.93-3.8,3.27s3,.67,6.16.72C839.55,480.56,841.15,480.27,841.15,479.46ZM890.39,478c4.72-1,5.26-2,1.75-3.36-2.57-1-8.38.19-9.45,1.91s.38,3.67,2,3A43.18,43.18,0,0,1,890.39,478Zm-25.65-3.63q3-3.14,5.4-3.13a22.54,22.54,0,0,0,6.61-1.82,39.84,39.84,0,0,1,10.13-2.32c5.41-.46,6.1-.74,8.14-3.44,1.24-1.61,2.8-2.93,3.46-2.93a2.23,2.23,0,0,0,1.72-.8c.75-1.22-2-3.58-4.19-3.58a4.09,4.09,0,0,1-3-1.84c-1-1.54-.93-2,.27-2.86a8.92,8.92,0,0,0,2.17-4.38c.62-2.75.47-3.62-.92-5a7,7,0,0,0-4.29-1.68,5.07,5.07,0,0,1-4.77-6.48c.46-1.82,0-2.95-2.38-5.56a71.44,71.44,0,0,1-5.57-7.3c-3.5-5.39-7-5.7-13.24-1.19-2.34,1.69-6.42,4.37-9.07,6s-4.71,3.37-4.57,4-.66,2.55-1.75,4.31-2.41,4-2.92,4.95-1.51,1.68-2.21,1.55-1.66.64-2.14,1.68c-.78,1.69-1.63,1.89-9.18,2.08a67.88,67.88,0,0,0-15.26,2.11c-3.82,1-7.76,1.7-8.75,1.44-1.76-.43-1.81-.09-2,11.11-.09,6.36-.3,12.94-.44,14.63l-.27,3.07,3.81-.29a34.17,34.17,0,0,0,7.44-1.59,96.13,96.13,0,0,1,13.62-2.6c8.71-1.14,10.19-1.59,11.66-3.46s2.47-2.13,6-2.13c2.38,0,4.32.4,4.32.89s-1.28,2.3-2.85,4c-3,3.35-4.5,5.53-4,6a15,15,0,0,0,4.41-.56c3.2-.68,4.61-.59,6.55.41,2.86,1.51,3.91,1.08,8.11-3.28Zm14-12c0-.64-1.42-.76-4.37-.35s-4.38.28-4.38-.3c0-1.47,1.63-2.07,6.28-2.32,2.4-.13,4.81-.68,5.35-1.22a5.91,5.91,0,0,1,3.45-1c3.36,0,4.21,2.4,1.61,4.51C884.57,463.48,878.79,464,878.79,462.39ZM842,461.71c0-1,1.8-2.4,4.16-3.12,3-.91,2.39.92-.79,2.51S842,462.73,842,461.71ZM872.25,452c-1-1.63,2.15-6,6-8.23,5.2-3.05,7.53-3.26,8.48-.77.65,1.72.31,2.2-2.66,3.72a14.34,14.34,0,0,0-4,2.64c-.46.73-6,3.5-7.06,3.5-.16,0-.52-.38-.8-.86Zm-20.39-15.06a2.5,2.5,0,0,1,1.38-1.4c.65-.21.84.2.52,1.05-.62,1.59-2.43,1.92-1.9.35Zm22.56-1.61c0-1.14,4.19-3.09,5-2.31s-2.29,3.14-3.88,3.17A1,1,0,0,1,874.42,435.32ZM732.31,475.45c-.27-.7-.48-.49-.52.52s.16,1.45.46,1.15A1.76,1.76,0,0,0,732.31,475.45Zm-15.09-4.59c1.61-5.54,1.76-7.37.49-6.1-.48.48-1.47,3.14-2.19,5.91-1.54,5.92-1.56,6.07-.49,5.42C715.48,475.81,716.46,473.45,717.22,470.86Zm50.72,4.26c.3-.78.16-1.13-.34-.82a1.91,1.91,0,0,0-.87,1.36C766.73,476.92,767.36,476.65,767.94,475.12ZM734.33,471c0-.39-.38-.46-.86-.16a2.5,2.5,0,0,0-.86,2c0,1.28.13,1.31.86.18A5.65,5.65,0,0,0,734.33,471Zm29.35.93a54.48,54.48,0,0,1,3.05-6.78c4.58-8.85,8.29-20.71,7.29-23.32-.84-2.18-3.71-1.37-4.31,1.21-.31,1.32-1.51,5.7-2.64,9.73a61.73,61.73,0,0,0-2.09,9.12,5.61,5.61,0,0,1-1.21,3.19c-1.55,1.75-2.79,8.82-1.54,8.82.49,0,1.14-.89,1.45-2Zm24.94-1.53a2.76,2.76,0,0,1,.73-2.1c.4-.25,1.18-2.54,1.73-5.09,3.77-17.34,3.86-18.43,1.34-16.33-.64.53-1.17,2.55-1.17,4.49a43.7,43.7,0,0,1-1.67,9.3c-2.32,8.07-3.05,12.66-1.89,11.95a2.88,2.88,0,0,0,.93-2.22Zm-19.54-1c-.27-.7-.48-.49-.53.52s.17,1.45.47,1.15a1.76,1.76,0,0,0,.06-1.67ZM781.63,466c1.89-1.46,5-9.5,6.15-16.14.86-4.71.07-6.62-2.73-6.62-2,0-3.15,3.92-4,14-.33,4.06-1.13,8.39-1.77,9.63a9.15,9.15,0,0,0-1.12,3.55c0,.72.43.32.91-.87a9.72,9.72,0,0,1,2.54-3.51Zm20-.87c0-2-.07-2-.75-.44a12,12,0,0,0-.76,3.94c0,2,.07,2,.76.44A12.1,12.1,0,0,0,801.63,465.11Zm-106.45-1.53c5.13-11.19,17.65-40.35,19.18-44.71s1.53-6.29-.1-6.29c-.4,0-1.19,1.15-1.78,2.56a6.41,6.41,0,0,1-2.19,3c-1,.39-3,4.85-8.79,20.27a85,85,0,0,1-3.39,7.88,12.15,12.15,0,0,0-1.4,4.62,9,9,0,0,1-1.23,3.94,20.64,20.64,0,0,0-1.84,6.32,25.75,25.75,0,0,1-1.43,5.91c-.46.84-.49,1.53-.08,1.53S693.91,466.34,695.18,463.58ZM726,467.17c.84-2.18-.08-2.47-1.19-.39-.55,1-.62,1.83-.17,1.83S725.65,468,726,467.17Zm32.92-2.28A41.58,41.58,0,0,1,762,459c2.72-4.19,6.63-18.81,5.37-20.07-2.41-2.41-4.06-.15-5.81,7.91a57.7,57.7,0,0,1-1.71,6.27,33.38,33.38,0,0,0-1.32,6.27,21.58,21.58,0,0,1-1.37,5.71c-1.09,2-1.12,2.66-.12,2.66.42,0,1.27-1.28,1.87-2.84Zm-58.24-1.21c1.52-3.64,1.56-3.83.66-3.82-.74,0-3.72,5-3.72,6.19C697.57,468,699.42,466.58,700.63,463.68Zm34.63-4a5,5,0,0,1,2.67-2.77c.93-.25,2.29-1.9,3-3.68,2.08-5,6.29-22.49,5.83-24.25s-1.87-2.08-2.31-.46c-.17.59-.78,2.67-1.36,4.59a62.35,62.35,0,0,0-1.64,8.31c-.49,4-1,5-2.84,5.88-2.36,1.13-6.35,9.74-7.42,16l-.53,3.06,1.79-2.19a23,23,0,0,0,2.77-4.51Zm-50.35-.31c1.33-3.13,2.92-6.1,3.52-6.6s2.16-3.56,3.44-6.79,3-7.44,3.91-9.36,2.24-5.28,3.07-7.45,2-5.12,2.66-6.56c2-4.62,2.2-5.69,1-5.69-1.47,0-2.74,1.53-3.59,4.37a19.29,19.29,0,0,1-2.24,4.44,50.23,50.23,0,0,0-3.85,8.25,53.26,53.26,0,0,1-3,6.94,92.53,92.53,0,0,0-4,9.7c-1.8,4.82-3.62,9.66-4.07,10.76-1,2.53-1,3.69,0,3.69.43,0,1.86-2.57,3.19-5.7Zm-16.74,3.38c.84-2.17-.08-2.47-1.2-.39-.54,1-.61,1.83-.16,1.83S667.87,463.58,668.17,462.79Zm109.77-6.87c2.29-7.86,2.8-13.57,1.2-13.57-.8,0-2.48,5.87-3.62,12.69-.4,2.41-1,5.56-1.36,7-.57,2.33-.49,2.48.67,1.32C775.56,462.63,777,459.29,777.94,455.92Zm-59.35,5.69c.42.69.91,1.07,1.08.85.74-1,2.77-6,4.21-10.48.86-2.66,3.35-9.07,5.54-14.25,4.33-10.25,5.39-15.71,3.13-16.18-1.36-.28-4.34,4.67-4.34,7.21,0,.68-1.48,4.11-3.31,7.63-3.45,6.65-4.68,9.45-8.44,19.24-2.76,7.15-2.86,8.54-.45,6.36,1.52-1.37,1.93-1.43,2.58-.38Zm-58.66-1.87c0-2.49,2.59-9.67,5.75-15.94a11.46,11.46,0,0,0,1.25-3.67,2.37,2.37,0,0,1,1-1.79c1.32-.82.2,4.29-1.95,8.76-1.74,3.66-2.22,9.25-.79,9.25s3.18-3.33,6.27-11.38c1.58-4.1,4.16-9.89,5.75-12.88a34.55,34.55,0,0,0,2.88-6.36,16.58,16.58,0,0,1,2.23-4.45c1.21-1.93,2-3.89,1.69-4.36-1.11-1.79-3.19-.7-4.63,2.44-2,4.26-6.33,11.6-6.91,11.6-.26,0-.25-.83,0-1.83.58-2.24-.16-4.47-1.27-3.79s-5.4,9.46-9.84,20.59c-4.16,10.44-5.17,16.55-2.74,16.55.89,0,1.32-.89,1.32-2.74Zm92.75.77c.43-1.08,2.2-5.36,3.92-9.51a62,62,0,0,0,3.67-11.51c.49-3.54.33-4.1-1.46-5.05-2.6-1.39-3.9.25-4.76,6A81.68,81.68,0,0,1,751.33,451a45.47,45.47,0,0,0-2.11,8.39c0,3.52,2.21,4.24,3.46,1.13Zm45.43-.87c1.57-3,2.92-11.38,2-12.31-1.51-1.5-2.46.19-3,5.28a54.75,54.75,0,0,1-1.1,7c-.31,1.07-.21,2,.25,2S797.54,460.71,798.11,459.64ZM670.43,458c0-.48-.39-.63-.87-.33a1.89,1.89,0,0,0-.88,1.41c0,.48.4.63.88.34A1.93,1.93,0,0,0,670.43,458Zm61-6.21c10.31-24.64,10.74-26.31,7.16-27.24-1.94-.51-2.2,0-5.68,10.79-1.15,3.61-2.89,9-3.84,11.86-1.43,4.35-2.15,13.31-1,12.17.17-.17,1.69-3.58,3.35-7.58Zm16.46.54c.66-2.85,2.21-8.08,3.44-11.64,2.6-7.47,2.77-9.34.9-10.06-1.53-.58-1.55-.51-3.48,7.78a101,101,0,0,1-3.06,10.5c-1.65,4.37-2,6.35-1.83,9.6S746.62,457.85,747.91,452.33Zm-92.09-4.64c2.43-5.11,5.15-9.81,6-10.44,1.12-.8,1.57-2.14,1.47-4.38a31.15,31.15,0,0,1,.49-6.28l.64-3.07-1.78,2.19c-1.45,1.76-10.29,20.85-13.19,28.45-.82,2.16-.23,4.15,1,3.38.51-.3,2.91-4.74,5.34-9.85Zm-16,8.3a44.39,44.39,0,0,0-2.19-4.73c-3.21-6.39-2.9-10.33,1.44-18.68,3-5.76,4.69-7.81,9.85-12q12.18-9.81,14.68-9.79c3.84,0,20.14-16.27,22.66-22.62.57-1.43,6.4-3.62,9.7-3.64a4.86,4.86,0,0,1,3.39,1.31,3.62,3.62,0,0,0,1.79,1.31c2,0,2.52-13.62.67-16.58a3.46,3.46,0,0,1-.12-3.71,5.82,5.82,0,0,0,.25-3.86,4,4,0,0,1,0-3,2.8,2.8,0,0,0-.06-2.55c-1.63-2.94-3.44-8.25-3.44-10.1a27.18,27.18,0,0,0-1.19-5.8c-.66-2.13-2.12-7.8-3.26-12.6-1.86-7.86-2.49-9.23-6.47-13.94-2.42-2.88-6.79-8.21-9.71-11.85-10.86-13.58-29.27-27.1-29.27-21.49,0,.72,1.91,3.78,4.25,6.78,5.5,7.05,8.66,12.13,9.43,15.2a24.64,24.64,0,0,0,2.3,5.33c1.28,2.15,1.4,2.86.52,2.86-.65,0-2.29-1.86-3.64-4.16-3.79-6.41-7.69-11.67-9-12.19a2,2,0,0,1-1.21-1.71c0-1.77-22.58-23.9-24.83-24.35-4.9-1-9.8-1.16-11.21-.4-1.65.88-7.73-1.07-7.73-2.47,0-.4-1.46-2.23-3.25-4.08-2.7-2.78-3.21-3.87-3-6.44l.27-3.1-2.93,1.8c-1.61,1-7,3.9-11.94,6.45-9.45,4.86-10.29,5.64-20.12,18.9-7.17,9.66-10.16,14.72-13.64,23s-3.49,8.58-3.72,20.14c-.56,26.81-.33,28.47,6.83,50.34,1,2.89,1.79,5.8,1.88,6.47.29,2.36-1.68,1.83-3.28-.89-2-3.38-2.55-2.65-4.31,5.86-3.25,15.68-3.58,20.52-1.39,20.52.41,0,2.86-2.87,5.44-6.35a70.44,70.44,0,0,1,6.22-7.59c3-2.51,3.38-4.33,1.4-7.54-1.79-2.88-1.75-4.79.09-4.79.48,0,4.48,3.42,8.88,7.59s8.16,7.15,8.33,6.6-1.34-3.82-3.4-7.29-3.67-7.22-3.56-8.46-1.24-4.28-3.35-7.44c-1.93-2.9-3.36-5.42-3.17-5.61.36-.36,6,7.2,8.41,11.16.74,1.24,3.66,6.17,6.47,10.95a204,204,0,0,0,20.31,29.27c3.43,4.09,7.88,9.86,9.89,12.81,6.16,9.08,8.11,9.5,10.63,2.34,3.2-9.12,4-8.63,4,2.54,0,8.26.17,9.16,2.18,11.6,6,7.27,12.26,12.7,12.26,10.62Zm-12.37-40.56a19.39,19.39,0,0,1,4.54-4.16c2-1.45,5.55-4.31,7.82-6.35,4.69-4.23,5.26-4.44,5.26-1.93,0,2.25-4.43,6.45-9.68,9.14a21.9,21.9,0,0,0-5.14,3.44c-1.63,2-3.88,1.85-2.8-.14Zm40.34-32.55c.93-1.73,6.87-5.8,7.51-5.15.41.4-7,6.83-7.88,6.83-.28,0-.12-.75.37-1.68Zm21.11-4.57a8.13,8.13,0,0,0-5.69-1.61c-6,.24-6.38.1-4.08-1.67,1.92-1.48,2-1.78.81-3.46a45.76,45.76,0,0,0-5.28-5.35c-2.81-2.46-4.17-4.44-4.57-6.61a16.33,16.33,0,0,0-3.37-6.27l-2.8-3.18,4.37.65a28.69,28.69,0,0,1,4.65.92c.16.15,1.37,3,2.71,6.27,1.52,3.76,3,6.1,4,6.29,1.83.36,1.58-1.84-1.78-15.42-2.46-9.88-2.53-10.7-.92-10.7,2,0,8.58,16.1,10.31,25.38a53.76,53.76,0,0,0,3.15,9.89c2.51,5.65,1.92,7.64-1.47,4.87ZM582.4,370.67a57.76,57.76,0,0,0-6.08-3.58c-5.2-2.79-7.16-4.46-12.58-10.69-2.25-2.58-3-4.6-4-10.3-.68-3.91-1.85-8-2.6-9-1.65-2.36-1.7-3.28-.18-3.28s4.42,3.25,6.72,7.82c1.12,2.24,6.18,8,11.82,13.57,11.3,11.09,12.85,13.33,10.45,15.09-1.88,1.36-2.38,1.42-3.5.4Zm81.9-4.09c-1.68-.61-6.21-2.67-10.06-4.58s-8-3.75-9.2-4.12-4.26-1.6-6.81-2.75c-4.77-2.15-10.19-2.75-11.13-1.21-.3.48-2.2.88-4.22.88-3,0-5-.92-11.29-5-11.57-7.66-19.58-16-15.35-16,.6,0,2.87,1.19,5,2.63,4.56,3.05,18.88,8.8,27.14,10.9l8.94,2.3a13.36,13.36,0,0,0,5.25.37c1.36-.31,5,1,11.19,4.13,7.34,3.68,9.69,5.35,11.7,8.24,3.16,4.55,2.83,5.68-1.19,4.22Zm-17.07-20.27a133.44,133.44,0,0,0-18.38-4.59c-6.55-1.23-20.44-9.05-23-13l-1.28-2,9.51.31c5.23.17,10.38-.09,11.45-.56,3.15-1.44,6.85.79,15.29,9.14,7.55,7.49,11.27,9.8,12.52,7.76,1-1.55-7.76-18.39-12.47-24.1-6.69-8.11-9.49-10.94-10.84-10.94a2.65,2.65,0,0,1-2.1-2,31.51,31.51,0,0,0-3.63-6.22c-1.65-2.33-2.78-4.48-2.5-4.76,1.59-1.59,18.89,10.24,22.35,15.29,2.34,3.4,4.94,4,4,.94-.32-1.08-.83-2.76-1.13-3.72-1.06-3.47,5.33,2.48,7.65,7.12,4.29,8.55,5.75,13.82,6.58,23.69.46,5.59.32,6.5-1.27,8.1-2.25,2.25-4,2.17-12.75-.56Zm43.57-1.79c-1-2.29-3.07-8.31-4.59-13.36s-3.12-10.08-3.56-11.16c-.62-1.53-.5-2,.53-2,1.85,0,6.06,9.73,8.8,20.34C694.48,348.05,693.83,351.44,690.8,344.52Zm-25.6-8.08a7.1,7.1,0,0,1-.69-3.8c.26-1.51.54-1.19,1.35,1.53C667,338.09,666.69,339.22,665.2,336.44Zm13.33-5.91c-1.6-2.13-2.84-4.83-2.84-6.19a13.26,13.26,0,0,0-2.31-5.8c-2-3-5.94-13.57-5.25-14.26s5.82,8.72,6.32,11.87c.32,2,.94,3.88,1.35,4.14a3.67,3.67,0,0,1,.76,2.6c0,1.18.39,2.14.86,2.14,1.09,0,4.59,6.78,4.23,8.21C681.5,333.83,680.1,332.61,678.53,330.53Zm-64.77-30c-6.19-3.38-16.8-13.79-14.84-14.56,1.72-.65,6.38,2,12.69,7.34,8.42,7.06,9.69,11.36,2.15,7.22Zm95.33,151.63c1-2.29,2.9-6.72,4.27-9.84,4.79-11,8.85-25.39,7.15-25.39-1.5,0-5.26,4.94-6.31,8.31a20.61,20.61,0,0,1-1.79,4.38,60.93,60.93,0,0,0-3.09,7.88,72.81,72.81,0,0,1-3.48,8.76c-1.78,2.86-2.41,7.36-1.23,8.79C706.33,457.15,707.2,456.59,709.09,452.19Zm-33.4-1.26c0-2.27-2.64-1.76-3.55.69-.59,1.59-.39,1.77,1.44,1.42,1.37-.26,2.11-1,2.11-2.11Zm-26-1.84c1.35-2.86,6.71-17,6.71-17.75,0-.21-.59-.38-1.32-.38a1.31,1.31,0,0,1-1.31-1.31c0-3.82-4.75.65-6.23,5.86a18.4,18.4,0,0,1-1.8,4.6c-1,1.18-.9,3.78.2,4.14.66.22.66,1,0,2.7-1.91,5,1.43,6.95,3.72,2.14Zm.71-13.26c.57-1.23,1.37-2.24,1.79-2.24.9,0-.65,3.15-1.93,3.94C649.79,437.85,649.85,437.11,650.43,435.83Zm38,3.73c1.25-3.27,2.64-6.19,3.08-6.46a1.91,1.91,0,0,0-.56-3.35c-1.91-.73-4.34,1.89-5.6,6a69.69,69.69,0,0,1-2.71,7.12,41.7,41.7,0,0,0-2.22,6.13l-.59,2.51,3.16-3a25.49,25.49,0,0,0,5.44-9Zm7.63,6.65c.87-2.37,2.4-6.08,3.41-8.24,2.15-4.63,3.43-8.76,2.72-8.76-1.57,0-4.58,5.92-6.8,13.35-.81,2.76-1.85,5.25-2.28,5.52-1.21.75-1,3.21.29,2.8.61-.2,1.81-2.3,2.66-4.67Zm21,.29a78.34,78.34,0,0,0,3.63-8.77c.75-2.29,2.79-7.14,4.51-10.78,3.27-6.88,3.38-9.12.46-9.12-2.25,0-2.77.9-5.06,8.76-1.05,3.6-2.88,9.32-4.07,12.69C712.37,451.09,712.68,455.37,717.07,446.5Zm-36.71-4.61a38.36,38.36,0,0,1,3.34-6.46c1.37-2.17,2.49-4.52,2.49-5.24a17,17,0,0,1,1-4.07c1.07-3,.37-7.82-1-7a2.4,2.4,0,0,0-.84,1.84c0,.73-1.64,4.74-3.64,8.92-3.79,8-5.5,15.62-3.33,14.9.64-.21,1.55-1.53,2-2.92Zm134.52-1.25a1.86,1.86,0,0,0-.87-1.36c-.48-.3-.88.07-.88.82s.4,1.37.88,1.37A.86.86,0,0,0,814.88,440.64Zm-8.29-14.93a73.58,73.58,0,0,1,2.27-9.8,6.79,6.79,0,0,0,.56-3.51c-.5-1.48-3.94,6.3-4.65,10.5a53.64,53.64,0,0,1-1.42,6.11,16.58,16.58,0,0,0-.21,6.57l.66,3.7.73-3.06C804.92,434.53,805.85,429.8,806.59,425.71ZM834.14,438a.88.88,0,1,0-.87.87A.88.88,0,0,0,834.14,438Zm-24.07-3.5c.3-.48.12-.88-.39-.88a.91.91,0,0,0-.92.88c0,.48.17.87.38.87S809.77,435,810.07,434.47Zm1.11-7.43c1.86-9.77,1.16-11.48-1.12-2.74-1.44,5.53-1.65,8.42-.63,8.42.38,0,1.16-2.56,1.75-5.68Zm-143.92-.94c.3-.78.16-1.13-.34-.83a1.89,1.89,0,0,0-.86,1.36C666.06,427.89,666.69,427.62,667.26,426.1Zm175.49-2.45c1.85,3.31,2,.21.25-3.64-2.18-4.6-3.72-5.5-6.72-3.9a4.09,4.09,0,0,1-4.31.13c-1.81-.82-2.2-.77-2.2.3,0,1.69,3.13,4.79,4.83,4.79.74,0,1.79,1,2.34,2.2l1,2.21,2-1.84c1.87-1.76,2-1.77,2.85-.25ZM676.47,420a13.07,13.07,0,0,0,1.84-4.57c0-2.47-3.23,1.51-3.92,4.84C673.63,423.91,674.2,423.83,676.47,420Zm21.1-.13c0-.41,1.57-3.09,3.48-6,3.84-5.79,4.11-6.54,2.27-6.54-.71,0-2.8,3.21-4.81,7.41-3.91,8.14-4.21,9.12-2.25,7.15A4.31,4.31,0,0,0,697.57,419.84Zm100.68.51c0-1-.39-1.5-.87-1.2a2.92,2.92,0,0,0-.88,2.28c0,1,.39,1.51.88,1.22A3,3,0,0,0,798.25,420.35Zm29.16-3.09a2,2,0,0,0-3.8-.26,3.26,3.26,0,0,0-.44,2.51c.69,1.13,4.72-1,4.24-2.25ZM672,417.89c.22-.66-.11-1-.76-.78a2.77,2.77,0,0,0-1.54,1.54c-.22.65.11,1,.77.77A2.74,2.74,0,0,0,672,417.89Zm189.08-2.25a18.49,18.49,0,0,1,6.42-2.18c3.34,0,7.77-1,7.77-1.75s-8.43-.54-11,.3a2.56,2.56,0,0,1-2.94-.72c-1.24-1.5-.27-2,7.63-4,4.15-1,4.79-1.54,6.44-4.95,1-2.08,1.65-4.28,1.42-4.89s-2.74-1.17-7.28-1.31c-6.34-.18-10.29-1.38-7.29-2.21.68-.2,2.65-.8,4.39-1.35a8.22,8.22,0,0,1,5.92,0c3.29,1.15,5.4,0,5.35-3,0-3.37-2-4.92-6.35-4.92a24.16,24.16,0,0,1-7.9-1.68l-3.93-1.69-4.65,2.46c-2.56,1.36-4.78,2.83-4.93,3.29-.3.88,1.79,5.88,3.51,8.39.89,1.32.82,1.79-.45,2.73-2.3,1.7-2,5.6.56,6.75a8,8,0,0,1,3.17,3c.93,1.74.83,2.36-.77,4.4-2.18,2.78-2.45,5.64-.51,5.64a20,20,0,0,0,5.46-2.19Zm-151.89-4.27c1.07-3.2.12-3.94-2.16-1.66-1.13,1.13-1.63,2.41-1.28,3.3C706.55,415.05,708.25,414.23,709.21,411.37Zm107-2.16c-.77-.77-2.18,1-2.15,2.76s.07,1.84,1.25-.27C816,410.5,816.36,409.38,816.19,409.21Zm-53.26-1.71c.28-1.1.27-2.26,0-2.56-1-1-2,.93-2.55,4.58-.49,3.25-.42,3.37.79,1.75a12.59,12.59,0,0,0,1.81-3.77Zm72.83-2.22c1.89-1.95,2.63-3.41,2.25-4.41-.53-1.38-.65-1.37-1.76.08s-1.31,1.38-2,.27c-.93-1.42-.42-6.82,1.29-13.55,1-3.77.92-4.58-.35-6.31-2-2.75-2.53-2.56-3.59,1.24-1.56,5.62-.95,25.6.78,25.6C832.67,408.2,834.2,406.89,835.76,405.28Zm-87.69-2.08c2.41-2.25,2.69-3.1,3.26-10.2.6-7.44.14-10.92-.92-6.87-.28,1.06-1,1.94-1.67,1.94-1.81,0-5.15-5.36-5.26-8.44-.09-2.7,0-2.8,3.8-3.1,4.19-.33,7.2,1.07,7.2,3.38a11.91,11.91,0,0,0,1.77,4.26c1.13,1.82,1.46,3.08.88,3.43-1.12.7-1.16,8.32,0,10.09s2.07.51,3.45-4.28c1-3.51.92-4.07-.77-6.36s-1.74-2.94-.92-6c1.18-4.39,1.9-4.8,4.65-2.64l2.24,1.76-.22-13.42c-.13-7.38-.5-13.86-.84-14.42s-1-8.89-1.42-18.53-1.15-18.17-1.58-18.93c-.7-1.25-.87-1.25-1.92,0s-1,5.71.67,22c1,9.57-1.23,31.48-3.36,32.84-1.32.85-10.78,1-15.14.21-1.94-.34-2.84-1.3-4.21-4.5L736,361.37l2.39-1.9,2.39-1.9-2.32-12.11c-3.28-17.11-3.6-19.55-2.53-19.55.51,0,1.32,1.67,1.81,3.72s1.35,5.3,1.9,7.22a80.37,80.37,0,0,1,1.77,10.7c.91,8.75,1.85,10.75,5,10.73,4.32,0,4.63-.74,3.16-7.46-.72-3.35-1.68-8.45-2.11-11.34s-1.25-7.43-1.79-10.07S744.36,322,744,318.9a89.79,89.79,0,0,0-7.5-24.95c-3.47-7.58-4.78-11.19-4.25-11.72.7-.72,3.4,3,6,8.39,2.1,4.28,4,6.56,4,4.86,0-.43-1.12-4.29-2.49-8.59-1.87-5.84-2.93-7.9-4.16-8.13a5.79,5.79,0,0,1-2.5-1.09c-1.13-1.08-2.23-1-2.23.17,0,1.54-2.78,7.11-5.1,10.21-1.68,2.25-2.39,2.65-3.33,1.87a3.38,3.38,0,0,1-1.2-2.15c0-1.85-3.48-2.42-7.35-1.2-4.64,1.46-5.8,2.39-7.24,5.85-.87,2.08-1.76,2.85-3.27,2.85s-2.18.58-2.49,2.19c-.34,1.76-.07,2.18,1.43,2.21,7.24.12,13.44,11.41,16.34,29.74,1,6.5,2.46,14.58,3.18,17.95a164.7,164.7,0,0,1,3.4,23.35c.36,4.71.89,6.86,1.79,7.2s1.55-.25,2-1.46c1.28-3.45-2.84-35.45-5.7-44.23a26.78,26.78,0,0,1-1.21-6.57c0-1.54-1-6-2.29-10-2.1-6.63-2.29-11.33-.38-9.35s7,24.82,8.75,40.2c.45,3.85,1.23,9.89,1.72,13.41a155.57,155.57,0,0,1,.86,17.8c0,6.26.16,11.6.41,11.86s.94-1.34,1.5-3.57,1.35-4,1.76-4,1.35,1.15,2.08,2.56a4.55,4.55,0,0,0,4.08,2.85,5.79,5.79,0,0,1,3.91,2c1,1.48.9,2.32-.55,5.56a23.32,23.32,0,0,0-1.72,8.13c0,3.92.15,4.23,1.61,3.45a27.35,27.35,0,0,0,4.24-3.32Zm96-11.76c3.89-2.06,4.21-4.25.63-4.25a3.71,3.71,0,0,0-3.51,1.69C839.32,392.36,840.43,393.34,844.06,391.44Zm20.29-16c7.11-1.95,13.1-4.85,12.1-5.85-.48-.49-3.52-1.29-6.75-1.79-5-.77-6.2-.7-8,.48-2.92,1.91-5,5.21-4.28,6.94s1.32,1.76,6.93.22ZM856,366c2.2-1.92,2.52-2.67,1.87-4.38-.86-2.25-.81-2.25-8.85-.15-6,1.56-7,2.27-7,5.12,0,1.56.57,1.75,5.65,1.75,4.87,0,6-.33,8.32-2.34Zm-64.55-4.35a4.37,4.37,0,0,0-1.35-4.32c-1.55-1.44-1.68-2.32-1.16-7.94a105.55,105.55,0,0,1,2.37-13.28c1-3.82,1.65-8,1.51-9.25-.26-2.22-.37-2.15-3,1.64-3.36,4.89-4.73,10.27-4.73,18.59,0,4.77.46,7.32,1.79,9.89a10.33,10.33,0,0,1,1.36,5.78c-.24,1.26-.2,2.54.1,2.84,1,1,2.68-1.22,3.09-3.95Zm-33.32-8c.08-3,.07-6.25,0-7.22s-.36-5.1-.58-9.19c-.47-8.74-.77-9.78-2.56-9.09-.84.33-1.35,0-1.35-.79a2.24,2.24,0,0,1,1.41-1.86c1-.39,1.24-1.09.79-2.5a48.18,48.18,0,0,1-1.2-5.9c-.43-3-.92-3.88-2-3.71-.83.14-1.63-.53-1.91-1.62s-1-1.69-1.63-1.47c-1.41.49-1.66,9.89-.33,12.49.5,1,.94,4.51,1,7.88.08,6.77,2.73,24.52,4,26.92a3.21,3.21,0,0,0,2.54,1.54c1.51,0,1.74-.68,1.88-5.48Zm92.6,3.3a20.72,20.72,0,0,0,4.78-3c.83-1.33-1.35-6.39-2.54-5.94-1.6.61-4.21-3.48-6.05-9.5a65.77,65.77,0,0,0-3.41-8.75,14.3,14.3,0,0,1-1.64-5.83c.09-1.27-1.26-6.39-3-11.38s-3.84-11.42-4.71-14.31-2.75-8.8-4.19-13.13-3.08-9.95-3.61-12.49a53.4,53.4,0,0,0-2.29-7.77,16.92,16.92,0,0,1-1.33-4.64,24.39,24.39,0,0,0-2.25-6.17,86.53,86.53,0,0,1-4-10.39c-2.43-7.85-9.3-23.83-11.17-26-2.25-2.58-6.74-12.71-10.26-23.2-1.69-5.06-4.45-12.26-6.13-16a52.8,52.8,0,0,1-3.49-10.07l-.44-3.26,2.69,4.73a29.12,29.12,0,0,1,2.72,5.69c.06,2.83,6.63,19.28,9,22.47,1.78,2.43,1.75,2.09-.53-6.19-.74-2.65-1.81-6.79-2.38-9.19a54,54,0,0,0-2.68-8.09,19.2,19.2,0,0,1-1.66-5.34,13.36,13.36,0,0,0-1.42-4.46,10.08,10.08,0,0,1-.94-5.7c.34-2.13,0-3.22-1.22-4.29a4.83,4.83,0,0,1-1.67-3,4,4,0,0,0-.8-2.42,21.66,21.66,0,0,1-2.14-5.21c-2.48-8-4.13-12.06-5.86-14.25-.94-1.2-1.7-2-1.7-1.84s.56,2.41,1.24,4.93.86,4.6.43,4.6-.8-.52-.8-1.15a19.29,19.29,0,0,0-1.77-4.82,30.39,30.39,0,0,1-2.26-6.51c-.44-2.7-.4-2.76.9-1.14a6.36,6.36,0,0,1,1.38,2.4c0,.39.45.71,1,.71,1.46,0,.3-5.83-2.37-11.91-3.29-7.49-5.47-13.33-6.26-16.76-.49-2.17-2-2.71-2-.71a14.37,14.37,0,0,0,1,3.72c1,2.46,4.29,13.86,4.29,14.71,0,.25-.35.45-.78.45s-1.41-1.58-2.18-3.5-1.64-3.51-1.94-3.51c-.82,0,.38,5.68,2.89,13.82,1.23,4,2,7.48,1.75,7.75-1.08,1.07-2.27-.77-3.14-4.87a88.36,88.36,0,0,0-3.92-11.59,86.45,86.45,0,0,1-3.63-10.36,13.55,13.55,0,0,0-1.32-3.94c-1.44-1.81-8.3-22.89-10.15-31.17-.47-2.11-.24-2.33,3.08-2.86,3.06-.49,3.58-.88,3.58-2.7a3.6,3.6,0,0,1,.88-2.66c1.64-1,1-4.67-1-5.28s-7.64,1.13-13,3.93A36.4,36.4,0,0,1,737,62c-2.61.75-7.88,5.56-7.88,7.18s5,17.26,7.51,23.46a32.84,32.84,0,0,1,2.12,6.61,3.62,3.62,0,0,0,.8,2.19c.44.46,2.19,4.77,3.89,9.59s4,10.92,5,13.57a96.46,96.46,0,0,1,3.09,9.19c3.17,12,6.08,20.11,10.5,29.18a139,139,0,0,1,6.58,15.78,122.85,122.85,0,0,0,6,14.58c2.34,4.81,5.11,11.11,6.14,14s3.22,8,4.87,11.38,5.2,11.45,7.88,18,5.81,13.19,7,14.88c2,2.9,6.69,13.42,8.3,18.56a36.07,36.07,0,0,0,2,4.82,61.11,61.11,0,0,1,2.84,7.27c2.19,6.8,7.55,20.33,13.51,34.14,9.27,21.46,16.67,39.82,16.67,41.37,0,2.09,1.91,1.91,7-.65Zm-5.64-13.8c-3.57-8.47-8.33-21.31-8.32-22.48,0-1.76,4,6.47,5,10.38a61.29,61.29,0,0,0,3.81,9.82c2.78,5.51,2.92,6,1.81,6-.4,0-1.45-1.68-2.31-3.72ZM783.24,161.75a69.35,69.35,0,0,1-4.61-18.38c-.45-4.83-.39-5.12.83-3.52,1.94,2.52,3.79,9.4,3.28,12.12a10.66,10.66,0,0,0,1,5.43,12.19,12.19,0,0,1,1.19,5.47c-.25,2.27-.33,2.22-1.71-1.12Zm-8.5,188.06a142.13,142.13,0,0,0-3.14-24.34c-.76-3.37-2.1-9.87-3-14.44s-1.92-8.32-2.31-8.32-1.13.71-1.67,1.57c-.76,1.25-.66,1.82.43,2.63,2.06,1.54,2.69,5.88,2.64,18.12-.07,11.68.7,17.28,3.56,26.12C773.43,357.86,774.92,357.29,774.74,349.81Zm70.87-30.3c-.7-.69-1-.47-1,.82,0,2.31,1.23,3.55,1.62,1.62a3,3,0,0,0-.66-2.44Zm-50-.12c0-1.66-.39-3.26-.87-3.55s-.88.86-.88,3c0,1.95.4,3.56.88,3.56S795.62,321.05,795.62,319.39ZM785,314.52l2.12-5.56-1.89-3.56c-2.35-4.43-2.37-5.76-.13-5.76s2.27-2.05.37-6.61c-1.06-2.53-1.58-3-2.18-2.08a7.07,7.07,0,0,0-.8,3.11,22.82,22.82,0,0,1-1.3,5.48c-1.5,4.27-.9,21.4.74,20.85.52-.17,1.9-2.82,3.07-5.87Zm-24.9-10c.31-6.47.13-7.4-2.81-13.78-3.2-6.92-4.35-7.91-6.36-5.48-.93,1.12-.64,2.93,1.64,10.42,1.52,5,2.76,10,2.76,11.06,0,2.11,2.44,5.4,3.69,5C759.45,311.55,759.94,308.31,760.12,304.49Zm15.09-8.57c-1.31-5.9-2.37-11.24-2.37-11.86,0-1.36-3.52-6.3-4.52-6.3-.39,0-.71.84-.71,1.88,0,1.88,3.9,16.24,5.31,19.57a49.39,49.39,0,0,1,1.72,5.57c.73,2.83,1.23,3.58,2,2.86s.36-3.79-1.39-11.72Zm66.32,9.63c-.73-2.4-1.1-2.86-1.77-2.18s.48,4.15,1.51,4.15c.5,0,.61-.84.26-2ZM746.6,304.5a2.26,2.26,0,0,0-.82-1.76c-1-.64-2.08,1-1.37,2.16s2.19,1.05,2.19-.4Zm-48.59-4c1.37-.59.94-.77-1.92-.81-2,0-3.91.33-4.21.81C691.22,301.58,695.53,301.58,698,300.52ZM836.94,292c-1.65-5-3.41-7.49-2.42-3.39.84,3.5,3.07,8.72,3.52,8.26C838.24,296.71,837.74,294.51,836.94,292Zm-143.35,1.35c.5-.44.08-.75-1-.75a5.68,5.68,0,0,1-3.59-2.19,8.11,8.11,0,0,0-2.15-2.19c-.91,0-1.3,4.87-.47,5.87S692.1,294.76,693.59,293.39Zm7.48-6.8c0-1.76,3.39-6.65,8.19-11.84,3-3.29,4.67-6.32,3.85-7.14s-7.76,5-8.54,7.1a36.73,36.73,0,0,1-4.35,6.62c-4,5-4.15,5.62-2,6.81C700.08,289.19,701.07,288.65,701.07,286.59Zm64.35-1.83c-.32-1-.8-1.69-1-1.45s-.17,1.29.16,2.33.79,1.68,1,1.44S765.75,285.79,765.42,284.76Zm-78.2-3c.54-1.19,3.18-3.9,5.89-6,11.63-9.17,17-16.54,16.54-22.68-.36-5-2.12-5.11-4.25-.28-1.8,4.07-3.14,4.86-5,3-.76-.77-1-.78-1-.06,0,.56-1,1.52-2.26,2.15-2.09,1-4.74,5-6,8.86-.27.87-.86,1.36-1.31,1.08s.07-2.7,1.22-5.53c4.69-11.61,6.83-16.45,8-18.1,1.75-2.49,1.53-3.65-.37-1.94C695.69,244.8,695,244,695,238c0-7-.43-8.11-3.68-9.79-2.33-1.2-2.79-1.2-4.7.05-1.18.77-2.13,1.95-2.13,2.64a2.56,2.56,0,0,1-1.21,2c-1.21.7-5.89,11-7,15.24a28.85,28.85,0,0,1-3.55,6.63c-2.11,3.08-2.87,5-2.56,6.58a3.08,3.08,0,0,1-1.49,3.57,3.35,3.35,0,0,0-1.6,2.95c.39,2.05,3.91,2.6,5.83.91,2.39-2.09,5.4-2.71,5.4-1.1,0,.75-.46,1.37-1,1.37-1.42,0-4.23,2.66-4.23,4,0,.62,2.32,2.52,5.16,4.24s5.34,3.92,5.6,4.89c.63,2.39,2.2,2.19,3.4-.42Zm-2.66-26.35c0-2.68-.45-5.42-1-6.08a2.18,2.18,0,0,1-.32-2.36c.39-.62,1-3.67,1.3-6.76.4-3.87,1.06-6,2.12-6.76,2-1.47,2.89-.84,2.41,1.7a40.09,40.09,0,0,0,.49,8.38c.85,6.17.81,6.5-1.78,11.55a39.45,39.45,0,0,1-2.94,5.21A21.94,21.94,0,0,1,684.56,255.37Zm-8.44,24.12c0-.77-1-1.41-2.4-1.57-2.58-.3-3.08.56-1.34,2.31C673.79,281.63,676.12,281.16,676.12,279.49Zm154.81-6.11c-2.1-9.2-4.15-15.18-5.32-15.56-1.65-.52-1.34,3.3.54,6.81a29.1,29.1,0,0,1,2.29,6c.76,3.46,3,9.17,3.49,8.72.17-.17-.29-2.87-1-6Zm-172.75.88c0-.49-.89-.85-2-.82-1.89.05-1.89.09-.22.82,1,.41,1.84.78,2,.8S658.18,274.74,658.18,274.26Zm-18.82-16.1a4.53,4.53,0,0,1,3.43-2.07c2.52,0,9.62-3.46,11.6-5.64a4.79,4.79,0,0,1,2.39-1.61c.53,0,2.51-1.2,4.4-2.63,3.82-2.89,5.87-3.24,7.5-1.28,2.33,2.79,3.87,1.4,8.78-7.93,2.81-5.34,2.76-10.68-.09-8.91a6.18,6.18,0,0,0-2.17,3.46c-.71,3.26-1.51,3.06-3.42-.85-1.28-2.62-1.63-5.65-1.75-15L669.88,204l2.9-2.91c1.6-1.6,2.91-3.56,2.91-4.36,0-1.22-.6-1.36-3.65-.88s-3.95.29-6-1.7l-2.4-2.31-10.37,1.42c-5.71.77-11.44,1.58-12.71,1.79-2.74.45-20.5,8.76-21.23,10-.27.45-3.88-.89-8-3s-8-3.59-8.7-3.34-1.62,1.67-2.13,3.16c-1.4,4-5.17,8.55-7.11,8.55-.94,0-1.75.49-1.81,1.09-.33,3.46,1.27,5.44,3.6,4.46a35.6,35.6,0,0,1,5.69-1.19c4.37-.64,6.63-.06,9,2.33,2.17,2.18,5.17,1.44,6.2-1.53.52-1.48,1.42-2.54,2-2.34,1.38.45,3.93,4.07,4.66,6.59.51,1.77.26,2-2.5,2-3.88,0-6.87,1.13-10.73,4.07-3.48,2.66-3.19,3.07,3.59,5.13,4.15,1.26,4.49,1.23,6.8-.46,2.55-1.9,4.41-1.55,6.75,1.27a5.3,5.3,0,0,0,3.64,1.37c2.12,0,2.83.66,4.76,4.46,1.24,2.46,2.06,5,1.8,5.68-.68,1.77-3,.54-4.52-2.38-1.6-3.08-3-3.25-3-.37,0,3.5-1.48,3.39-5.27-.4-3.21-3.22-4-3.56-7.25-3.32l-3.68.27.28,3.5a9.36,9.36,0,0,0,2.5,5.83c1.23,1.29,2,2.77,1.64,3.28-.79,1.28-4.25,1.21-5.57-.1-.82-.82-1.35-.77-2.38.27s-1.19,1.68,0,4.44c2.12,5.09,5.42,5.79,17.47,3.72,2.66-.46,3.58-.28,4.2.83,1.28,2.29,6.52,1.87,8.16-.65Zm-2.3-26.42c-2.65-1.39-4.82-5.5-5.66-10.73-.49-3-.35-3.66.84-3.66.93,0,1.42-.75,1.42-2.19,0-2.91,1.75-2.77,4.77.39,2.26,2.35,2.43,3,1.9,6.94-.36,2.66-.23,4.57.32,4.91,1.24.77,1.12,3.56-.2,4.64-.76.64-1.79.54-3.39-.3ZM610,208.6c-1.06-.7-.94-.86.65-.87,1.09,0,2,.38,2,.87C612.65,209.69,611.72,209.69,610,208.6Zm205.82,23c-.8-1.37-.91-1.28-.94.7a5.38,5.38,0,0,0,.63,2.93c1.05,1.06,1.31-1.92.31-3.63Zm-4.2-13.16c-1.71-6.59-2.83-8.55-2.87-5.05,0,2.73,2.61,10.07,3.62,10.08.31,0,0-2.26-.75-5Zm-121,2.39a10,10,0,0,0,5.6-4.37c1.33-1.92,2.68-3.49,3-3.49,1.09,0,4.41-7.87,4.9-11.61a27.16,27.16,0,0,1,2.32-7.28c1.76-3.44,1.77-3.66.28-5.93-2-3.05-4.49-3.6-11.12-2.43-5.45,1-10.1,3.62-6.34,3.62a7.26,7.26,0,0,0,3.51-1.25c1.55-1.07,2.27-1,5.9.56,5.16,2.24,5.86,4.41,3.58,11.11a47.26,47.26,0,0,0-1.69,5.77c-.06,1.95-3.53,6.59-4.77,6.38-.73-.13-2.84.49-4.68,1.36-4.16,2-5.84,1.4-5.84-2,0-2,.59-2.94,2.62-4,3.22-1.67,3.34-3.27.37-5.22a11.61,11.61,0,0,1-3.52-4.48c-1.29-3.08-3-3.82-4.45-1.9-.43.6-.76,5.12-.71,10,.1,8.72.18,9.05,2.94,12.48,3.08,3.83,3.41,3.94,8.1,2.63Zm6.51-24.12c-.77-1.17-2-2.12-2.69-2.12-1.71,0-1.7,3.82,0,5.25a4,4,0,0,1,1.35,2.51c0,.9.53.5,1.37-1C698.44,199.08,698.43,198.63,697.18,196.71Zm106.76-5.46c-1.27-4.18-2.71-9-3.2-10.67a51.85,51.85,0,0,0-2-5.69,25.74,25.74,0,0,1-1.46-4.31,2.83,2.83,0,0,0-1.54-2.09c-.89-.3-1.06,0-.61,1.2a33.61,33.61,0,0,1,1.13,5.59,13.37,13.37,0,0,0,1.73,5.39c1.71,2,4.68,10.73,4.68,13.79a18.05,18.05,0,0,0,1.5,5.92c1.5,3.38,1.51,3.38,1.82.94C806.11,200,805.22,195.44,803.94,191.25ZM641.1,186.16c5.3-.76,11.6-1.73,14-2.16,8.84-1.57,23.13-2.47,37.65-2.38,16.38.11,20.16-.39,21.45-2.8a4.28,4.28,0,0,1,2.84-1.9c1.27-.18,2.51-1.44,3.51-3.57.84-1.8,2.11-3.28,2.81-3.28,1.65,0,3.24-3,2.56-4.75-1-2.62-4.72-.87-4.72,2.23,0,2.4-5.1,4.77-13.13,6.1-8.68,1.44-40.93,1.49-49.9.07-3.13-.49-10.57-2.32-16.53-4.07-10.49-3.08-10.95-3.14-14.26-1.81-3.1,1.24-4,1.24-9.64-.05-10.29-2.34-14.31-4.56-10.75-5.93,1-.39,1.22-1.25.82-3.38s0-3.88,1.79-7a21.91,21.91,0,0,1,3.11-4.64,3.48,3.48,0,0,0,.81-2.54,11.88,11.88,0,0,1,1.31-4.54,11.65,11.65,0,0,0,1.31-3.87c0-5.18,11.17-4.17,17.73,1.6,2.34,2.05,1.91,6.43-1,10.49-1.56,2.15-2.55,4.57-2.51,6.14.09,3-2.47,6.89-5,7.55a11.33,11.33,0,0,0-3.51,1.87c-1.65,1.34-1.53,1.39,2.34.94,3.69-.43,14.48,1.23,24.8,3.81,4.68,1.17,15,1.15,17.21,0,1.94-1,20.72-1.37,32.06-.56,6.93.5,7.29.43,8.6-1.57,1-1.5,2.52-2.26,5.46-2.68,5.79-.84,7.15-1.75,7.15-4.78s-1-3.24-6.25-.86c-5.5,2.49-6.77,2.17-3.38-.86,1.62-1.45,3.58-2.63,4.37-2.63a6.44,6.44,0,0,0,3.12-1.28c2.1-1.59,1.32-1.63-7-.43-5.16.75-6.19.68-6.83-.46a3,3,0,0,0-2.45-1.33c-.94,0-1.71-.39-1.71-.87s.72-.88,1.6-.88c2.54,0,9.57-2.63,10.71-4,1.81-2.17-.58-3.88-5.41-3.88-5.05,0-5.66-1.42-1-2.26,4.3-.78,6.54-2,5.82-3.13-.33-.55-1.92-.71-3.9-.39s-3.58.15-3.89-.35.44-.87,1.73-.87a17.55,17.55,0,0,0,5.46-1.34c4-1.66,3-3.05-2.73-3.69-4-.45-5.2-1.58-2.71-2.54.73-.27,1.32-.78,1.32-1.12,0-.9-6-3.71-9.63-4.48a80.71,80.71,0,0,1-8.08-2.5,33.22,33.22,0,0,0-10.06-1.85c-3.68,0-5.9-.52-8.13-1.91-2.5-1.56-4.14-1.87-9-1.67-3.25.14-7,.4-8.31.58s-6.33.73-11.14,1.21a98.62,98.62,0,0,0-12.26,1.87c-5.55,1.57-16.14,7-18.78,9.66-1.33,1.33-4.78,7.27-7.67,13.19-6.55,13.45-7.58,16.1-6.94,17.79s-2.43,4.81-5,4.81a2.83,2.83,0,0,0-2.57,1.25c-.27.69-2.88,2.56-5.8,4.16s-5.21,3.43-5.09,4.09c.24,1.21,6,3.6,8.78,3.62.84,0,6.7,2,13,4.4,10.48,4,24.21,7.6,29.67,7.77,1.2,0,6.52-.55,11.81-1.32Zm43.34-27.47a.91.91,0,0,1,.93-.88c.51,0,.68.4.38.88s-.71.88-.92.88S684.44,159.17,684.44,158.69Zm7.44,0c-2.54-.35-3.46-.7-2.19-.84,3.36-.35,6.48,0,7.4.92.53.5.53.74,0,.66S694.29,159,691.88,158.69ZM624,156.24c1.12-2.12.29-3.21-3.73-4.89s-4.94-1.27-4.94,1.74c0,1.62.72,2.5,2.84,3.42C621.92,158.16,622.94,158.11,624,156.24Zm92.71-6.8c2.34-1.65,1.68-3.32-1-2.5s-4.17,2.16-3.59,3.09C712.8,151.19,714.46,151,716.66,149.44Zm-89.13-5c0-2.53-.77-3.52-3.63-4.77-1.95-.86-2.55-.77-3.72.52-2,2.2-1.74,3.35,1,4.85,3.71,2,6.34,1.77,6.34-.6Zm91.05-2.4a.84.84,0,0,0-.82-.88,1.88,1.88,0,0,0-1.37.88c-.29.48.07.87.83.87S718.58,142.54,718.58,142.06Zm45.85-38.31C762.8,97,760.94,95,762,101.13c.7,4.24,1,5,2.23,5,.47,0,.58-1,.25-2.41Zm.41-13.62c-.66-1.23-1.15-1.52-1.4-.79-.55,1.65.51,3.89,1.54,3.25.58-.36.54-1.19-.14-2.46Zm-4.78-.38a20.47,20.47,0,0,0-1.33-3.88c-1-1.88-1-6,0-6,.39,0,1.39,1.28,2.21,2.84l1.49,2.85L761.9,83c-.76-4-4.82-14.36-5.88-15s-.92-.43,1,5.59c.48,1.56.58,3,.22,3.24-.59.36-2.38-3.16-3.91-7.66-.3-.88-.91-1.36-1.37-1.08s-.32,1.73.43,3.53A16.33,16.33,0,0,1,753.6,76c0,2,5.56,16.12,6.37,16.13.36,0,.41-1.08.09-2.4Zm-401.87,1029a28.81,28.81,0,0,0-4.89-3.5c-1.45-.53-2.23-3.24-.93-3.24s7.26,4.64,8.61,6.74C363.17,1122.1,361.91,1122.1,358.19,1118.77Zm12.35-8.84c-.94-.7-1.41-1.58-1-1.93.74-.7,5,1.32,5,2.45s-2.12.88-4-.52Z"/></g></svg>